<svg id="095b6b34-386c-4fef-9729-2f8aaf55a43f" data-name="Layer 1" xmlns="http://www.w3.org/2000/svg" xmlns:xlink="http://www.w3.org/1999/xlink" viewBox="0 0 50 50"><defs><style>.\34 f74eac4-117c-4730-b635-490bb4370890{fill:none;}.a1592263-b6f7-4c5f-8bfd-dabfe6109005{clip-path:url(#2e2e167c-199c-4f5f-a133-dda23104b3d0);}.cecb465a-89d8-426b-b5b9-5c44d6ca659d{fill:#f3f3f3;}.b798df1d-d9a4-490f-b337-663e739d6671{fill:#403e56;}.\37 dc182ec-b558-49e4-9251-d010bfa7302f{fill:#56bf98;}.\39 e82e77e-8ebe-4ac2-aa1c-e7477fcdc4a4{fill:#010101;opacity:0.1;isolation:isolate;}</style><clipPath id="2e2e167c-199c-4f5f-a133-dda23104b3d0"><rect class="4f74eac4-117c-4730-b635-490bb4370890" width="50" height="50"/></clipPath></defs><title>agencies</title><g class="a1592263-b6f7-4c5f-8bfd-dabfe6109005"><rect class="cecb465a-89d8-426b-b5b9-5c44d6ca659d" x="20.35" y="14.79" width="72.19" height="50.71"/><rect class="b798df1d-d9a4-490f-b337-663e739d6671" x="26.43" y="34.14" width="18.13" height="31.64"/><rect class="cecb465a-89d8-426b-b5b9-5c44d6ca659d" x="29.78" y="36.03" width="4.88" height="4.55"/><rect class="cecb465a-89d8-426b-b5b9-5c44d6ca659d" x="36.32" y="36.03" width="4.88" height="4.55"/><rect class="cecb465a-89d8-426b-b5b9-5c44d6ca659d" x="29.78" y="42.24" width="4.88" height="4.72"/><rect class="cecb465a-89d8-426b-b5b9-5c44d6ca659d" x="36.32" y="42.24" width="4.88" height="4.72"/><polygon class="b798df1d-d9a4-490f-b337-663e739d6671" points="100.08 24.33 12.8 24.33 18.62 12.17 19.93 9.44 21.63 5.88 22.93 3.16 24.44 0 93.21 0 94.1 3.16 94.87 5.88 95.88 9.44 96.65 12.17 100.08 24.33"/><polygon class="7dc182ec-b558-49e4-9251-d010bfa7302f" points="94.87 5.88 21.63 5.88 22.93 3.16 94.1 3.16 94.87 5.88"/><polygon class="7dc182ec-b558-49e4-9251-d010bfa7302f" points="96.65 12.17 18.62 12.17 19.93 9.44 95.88 9.44 96.65 12.17"/><circle class="7dc182ec-b558-49e4-9251-d010bfa7302f" cx="13.89" cy="29.26" r="13.98"/><circle class="9e82e77e-8ebe-4ac2-aa1c-e7477fcdc4a4" cx="13.89" cy="29.26" r="12.02"/><path class="cecb465a-89d8-426b-b5b9-5c44d6ca659d" d="M13.32,36.35V34.6A4.06,4.06,0,0,1,11,33.84l.37-1.16a3.73,3.73,0,0,0,2.2.74,1.68,1.68,0,0,0,1.81-1.7c0-1-.59-1.54-1.72-2.06-1.56-.69-2.52-1.49-2.52-3a2.72,2.72,0,0,1,2.3-2.79V22.13h.95v1.68a3.71,3.71,0,0,1,2,.61L16,25.56A3.37,3.37,0,0,0,14.05,25a1.46,1.46,0,0,0-1.62,1.49c0,.9.56,1.35,1.89,2,1.57.73,2.36,1.63,2.36,3.17a2.9,2.9,0,0,1-2.41,2.94v1.8Z"/></g></svg>