<svg id="a10ad9d2-259b-441e-b9b2-5fa19b30e9d9" data-name="5608f773-9105-4ac5-92ee-00dc8494bf09" xmlns="http://www.w3.org/2000/svg" xmlns:xlink="http://www.w3.org/1999/xlink" viewBox="0 0 700.15 541.55"><defs><style>.\35 13a6f56-0795-4ed1-a6a9-b61e32f26371{fill:none;stroke:#535461;stroke-miterlimit:10;stroke-width:2px;}.\31 693d3f7-35b3-4f36-82dc-702330c33aa1,.a47da233-fa48-404a-8341-4f5d9b5cad6d{fill:#38d39f;}.\39 e9332f5-211b-4d7d-8ed3-3f93752118b9{opacity:0.25;}.\33 5cbef8a-70ba-4bf9-8a9a-16343ee80d0e,.\34 752fad1-7f1e-4389-b139-1c1bf2f6f8a8,.\39 e9332f5-211b-4d7d-8ed3-3f93752118b9,.a47da233-fa48-404a-8341-4f5d9b5cad6d{isolation:isolate;}.\30 198a78b-c981-4927-b737-09c4e8c8be64{fill:url(#60bb98bc-5c2e-4e34-9eff-c534fb901b63);}.\34 892cf28-91da-4741-909e-be18007e48bb{fill:#333;}.fab80249-d94c-40f1-b899-06d1912ebf9d{fill:#fdb797;}.c4fb79d1-6418-4776-b9f9-83b5a4cf2be7{fill:#252a62;}.\34 752fad1-7f1e-4389-b139-1c1bf2f6f8a8,.\34 86ef7d3-a737-43c5-b8be-7bd829bc002c{opacity:0.1;}.\34 3648763-8f1d-47d2-82f2-29d47de0c13e{fill:#f55f44;}.fbdfc600-786e-4588-b7ba-47c2aa62a449{fill:#72351c;}.\32 65ab658-ec41-4fbd-a386-2d14d72bf8f5{fill:url(#79bb5e7d-139d-404a-930e-1ab4d04ccd95);}.\38 e782bd7-92b0-43f8-9058-e773a192279b{fill:url(#faa69984-498b-4669-aad8-5a963fd7cddd);}.\30 00c96b0-0840-4ed3-b943-3933ccf3612f{fill:url(#c73c6e89-d07b-4693-8b76-f9f70f9d02a0);}.\35 7b6ccd0-1cab-47a8-89a3-2a0e655f0e40{fill:#ffc533;}.\30 435df7e-d47e-42fe-b96c-726a9b54ef3f{fill:#3ad29f;}.\32 d5ed35a-176d-48c4-9ab4-500b6b0f8f4f{fill:#535461;}.\33 5cbef8a-70ba-4bf9-8a9a-16343ee80d0e,.a47da233-fa48-404a-8341-4f5d9b5cad6d{opacity:0.5;}.\33 5cbef8a-70ba-4bf9-8a9a-16343ee80d0e{fill:#fff;}</style><linearGradient id="60bb98bc-5c2e-4e34-9eff-c534fb901b63" x1="599.79" y1="-121.88" x2="599.79" y2="432.53" gradientTransform="matrix(1, 0, 0, -1, -115.27, 417.3)" gradientUnits="userSpaceOnUse"><stop offset="0" stop-color="gray" stop-opacity="0.25"/><stop offset="0.54" stop-color="gray" stop-opacity="0.12"/><stop offset="1" stop-color="gray" stop-opacity="0.1"/></linearGradient><linearGradient id="79bb5e7d-139d-404a-930e-1ab4d04ccd95" x1="362.56" y1="-106.38" x2="362.56" y2="-106.22" xlink:href="#60bb98bc-5c2e-4e34-9eff-c534fb901b63"/><linearGradient id="faa69984-498b-4669-aad8-5a963fd7cddd" x1="360.12" y1="-106.38" x2="360.12" y2="-104.82" xlink:href="#60bb98bc-5c2e-4e34-9eff-c534fb901b63"/><linearGradient id="c73c6e89-d07b-4693-8b76-f9f70f9d02a0" x1="326.38" y1="-124.25" x2="326.38" y2="423.24" xlink:href="#60bb98bc-5c2e-4e34-9eff-c534fb901b63"/></defs><title>blockchain-contracts</title><path class="513a6f56-0795-4ed1-a6a9-b61e32f26371" d="M68.6,506.44s-29.11-98.83,5.46-171.57c14.51-30.53,19.33-64.8,12.62-97.93a262.52,262.52,0,0,0-13.86-46"/><path class="1693d3f7-35b3-4f36-82dc-702330c33aa1" d="M94.32,145c0,12.11-21.93,47.23-21.93,47.23S50.46,157.13,50.46,145a21.93,21.93,0,1,1,43.86,0h0Z"/><path class="1693d3f7-35b3-4f36-82dc-702330c33aa1" d="M130.57,212.07C124,222.24,86.49,239.8,86.49,239.8s.68-41.4,7.26-51.57a21.93,21.93,0,0,1,36.82,23.84Z"/><path class="1693d3f7-35b3-4f36-82dc-702330c33aa1" d="M129,326.75c-10.81,5.45-52,1.69-52,1.69s21.42-35.37,32.25-40.85A21.93,21.93,0,0,1,129,326.75Z"/><path class="1693d3f7-35b3-4f36-82dc-702330c33aa1" d="M108.26,413.22c-9.74,7.2-51,10.46-51,10.46S72.46,385.16,82.19,378a21.93,21.93,0,0,1,26.49,35l-.41.31Z"/><path class="1693d3f7-35b3-4f36-82dc-702330c33aa1" d="M40.41,242.18c8.69,8.44,49.16,17.18,49.16,17.18s-9.91-40.2-18.6-48.64a21.93,21.93,0,0,0-30.56,31.46Z"/><path class="1693d3f7-35b3-4f36-82dc-702330c33aa1" d="M17.48,343.62c10.81,5.45,52,1.69,52,1.69S48,309.91,37.18,304.46a21.93,21.93,0,1,0-20.08,39l.33.16Z"/><path class="1693d3f7-35b3-4f36-82dc-702330c33aa1" d="M8.69,445.28c9.74,7.2,51,10.46,51,10.46S44.49,417.22,34.76,410A21.93,21.93,0,0,0,8.68,445.28Z"/><path class="9e9332f5-211b-4d7d-8ed3-3f93752118b9" d="M94.32,145c0,12.11-21.93,47.23-21.93,47.23S50.46,157.13,50.46,145a21.93,21.93,0,1,1,43.86,0h0Z"/><path class="9e9332f5-211b-4d7d-8ed3-3f93752118b9" d="M130.57,212.07C124,222.24,86.49,239.8,86.49,239.8s.68-41.4,7.26-51.57a21.93,21.93,0,0,1,36.82,23.84Z"/><path class="9e9332f5-211b-4d7d-8ed3-3f93752118b9" d="M129,326.75c-10.81,5.45-52,1.69-52,1.69s21.42-35.37,32.25-40.85A21.93,21.93,0,0,1,129,326.75Z"/><path class="9e9332f5-211b-4d7d-8ed3-3f93752118b9" d="M108.26,413.22c-9.74,7.2-51,10.46-51,10.46S72.46,385.16,82.19,378a21.93,21.93,0,0,1,26.49,35l-.41.31Z"/><path class="9e9332f5-211b-4d7d-8ed3-3f93752118b9" d="M40.41,242.18c8.69,8.44,49.16,17.18,49.16,17.18s-9.91-40.2-18.6-48.64a21.93,21.93,0,0,0-30.56,31.46Z"/><path class="9e9332f5-211b-4d7d-8ed3-3f93752118b9" d="M17.48,343.62c10.81,5.45,52,1.69,52,1.69S48,309.91,37.18,304.46a21.93,21.93,0,1,0-20.08,39l.33.16Z"/><path class="9e9332f5-211b-4d7d-8ed3-3f93752118b9" d="M8.69,445.28c9.74,7.2,51,10.46,51,10.46S44.49,417.22,34.76,410A21.93,21.93,0,0,0,8.68,445.28Z"/><path class="513a6f56-0795-4ed1-a6a9-b61e32f26371" d="M627,453.3s-29.11-98.82,5.43-171.56c14.51-30.53,19.33-64.8,12.62-97.93a262.52,262.52,0,0,0-13.86-46"/><path class="1693d3f7-35b3-4f36-82dc-702330c33aa1" d="M652.7,91.88c0,12.11-21.93,47.23-21.93,47.23S608.84,104,608.84,91.88a21.93,21.93,0,0,1,43.86,0Z"/><path class="1693d3f7-35b3-4f36-82dc-702330c33aa1" d="M689,159c-6.58,10.17-44.08,27.73-44.08,27.73s.68-41.4,7.26-51.57A21.93,21.93,0,1,1,689,159Z"/><path class="1693d3f7-35b3-4f36-82dc-702330c33aa1" d="M687.41,273.61c-10.81,5.45-52,1.69-52,1.69s21.49-35.4,32.3-40.85a21.93,21.93,0,0,1,21,38.51Q688.07,273.3,687.41,273.61Z"/><path class="1693d3f7-35b3-4f36-82dc-702330c33aa1" d="M666.64,360.07c-9.74,7.2-51,10.46-51,10.46s15.2-38.52,24.93-45.72a21.93,21.93,0,1,1,26.78,34.73Z"/><path class="1693d3f7-35b3-4f36-82dc-702330c33aa1" d="M598.82,189.07c8.69,8.44,49.16,17.18,49.16,17.18s-9.91-40.18-18.57-48.67a22,22,0,1,0-30.59,31.49Z"/><path class="1693d3f7-35b3-4f36-82dc-702330c33aa1" d="M575.86,290.48c10.81,5.45,52,1.69,52,1.69s-21.45-35.4-32.25-40.85a21.93,21.93,0,1,0-20.07,39Z"/><path class="1693d3f7-35b3-4f36-82dc-702330c33aa1" d="M567.07,392.14c9.74,7.2,51,10.46,51,10.46s-15.2-38.52-24.93-45.72a21.93,21.93,0,0,0-26.08,35.26Z"/><path class="9e9332f5-211b-4d7d-8ed3-3f93752118b9" d="M652.7,91.88c0,12.11-21.93,47.23-21.93,47.23S608.84,104,608.84,91.88a21.93,21.93,0,0,1,43.86,0Z"/><path class="9e9332f5-211b-4d7d-8ed3-3f93752118b9" d="M689,159c-6.58,10.17-44.08,27.73-44.08,27.73s.68-41.4,7.26-51.57A21.93,21.93,0,1,1,689,159Z"/><path class="9e9332f5-211b-4d7d-8ed3-3f93752118b9" d="M687.41,273.61c-10.81,5.45-52,1.69-52,1.69s21.49-35.4,32.3-40.85a21.93,21.93,0,0,1,21,38.51Q688.07,273.3,687.41,273.61Z"/><path class="9e9332f5-211b-4d7d-8ed3-3f93752118b9" d="M666.64,360.07c-9.74,7.2-51,10.46-51,10.46s15.2-38.52,24.93-45.72a21.93,21.93,0,1,1,26.78,34.73Z"/><path class="9e9332f5-211b-4d7d-8ed3-3f93752118b9" d="M598.82,189.07c8.69,8.44,49.16,17.18,49.16,17.18s-9.91-40.18-18.57-48.67a22,22,0,1,0-30.59,31.49Z"/><path class="9e9332f5-211b-4d7d-8ed3-3f93752118b9" d="M575.86,290.48c10.81,5.45,52,1.69,52,1.69s-21.45-35.4-32.25-40.85a21.93,21.93,0,1,0-20.07,39Z"/><path class="9e9332f5-211b-4d7d-8ed3-3f93752118b9" d="M567.07,392.14c9.74,7.2,51,10.46,51,10.46s-15.2-38.52-24.93-45.72a21.93,21.93,0,0,0-26.08,35.26Z"/><path class="0198a78b-c981-4927-b737-09c4e8c8be64" d="M609.69,499.75a.75.75,0,0,1,.07-.38c.07-.13,0-.07,0-.1a4.63,4.63,0,0,0,0-.75s-1.34-2.57-2.9-6.1h0c-2.13-4.85-4.66-11.52-4.66-15.89,0,0-23.37-81.78-39.17-90.71,0,0-13-23.15-12.86-36.18a73.69,73.69,0,0,0-1-12.43c-2.31-14.37-6.16-41.88-2.64-46.91,4.47-6.39,11.92-34.19-5.87-55.18l3.12-.48s-.17-.21-.45-.62l.45-.07s-6.88-8.26-6.88-26.51c.1-10.51,2.47-24.24,9.63-41.53q1.42-3.44,2.6-6.81a34.22,34.22,0,0,0,9-6.48l.32-.33.37-.35c6.57-6.6,10.55-15.36,13.32-24.25A115.46,115.46,0,0,0,577,102.56c.74-9.27.35-18.58,0-27.87-.45-10.84-1-22-5.34-31.89-1.71-3.87-4-7.53-5-11.63a68.09,68.09,0,0,1-1.21-8.53C564,11.41,558.64.52,549.92-6.69S529-17.11,518.1-14.09c-6.24,1.73-11.81,5.31-17,9.23A57.49,57.49,0,0,0,494.82.63c-6.27,6.15-11,14.21-6.46,22.68q.5.92,1.07,1.8A30.92,30.92,0,0,0,504,70.18l.81,1.42h.09c2.37,4.38,5,9.85,5.63,14a43.07,43.07,0,0,0-8,7.39c-8.09,9.65-12.52,16.2-14.94,20.47a73,73,0,0,1-7.93,11.15c-3.67,4.34-8,12.81-8,28.57v3.59c-19.37,21.09-94.91,5.63-94.91,5.63-9.1-3.54-19.69.73-24.65,3.24a3,3,0,0,0-1,4.59c8,9.64,27.68,3.86,27.68,3.86s70.78,12.37,76.28,16.49c3.74,2.81,10.35.52,14.19-1.23l-.79.89,1-.49L464,238.68h.08l-.08.69s1.26-.11,3.27-.25l1.68,4.35h-.14l1.74,4.12h0L472,251c-4.27,15.44-21.48,79-19.67,93.51,0,0-11,26.11-6.87,40.55,0,0-15.12,108.58-24.74,114.08l1.35.61c-10.27,5.87-32.64,16.91-48.08,11.76,0,0-9.62,2.75,5.5,12.37,0,0,61.85,16.49,70.1,11l-1.37-23.77.7.25c.1-1.34,1-11.17,4.8-15.65,0,0,24.74-67.35,23.37-101.71l23.09-55.8c2.5,6.4,5.15,11.83,7.83,15.26l9.62,24.74,15.81,20.62s49.48,78.34,46,101.71l1.16.29c-4.63,8.24-16.15,25.13-32.78,25.13,0,0-14.43,15.12,12.37,13.06,0,0,33.67-2.06,58.41-15.81Z"/><path class="4892cf28-91da-4741-909e-be18007e48bb" d="M434.33,493.4S402.52,514.61,382.64,508c0,0-9.28,2.65,5.3,11.93,0,0,59.65,15.91,67.6,10.6l-2-34.46Z"/><path class="4892cf28-91da-4741-909e-be18007e48bb" d="M584.11,493.4s-12.59,28.5-33.8,28.5c0,0-13.92,14.58,11.93,12.59,0,0,32.47-2,56.33-15.24l-11.41-29.74Z"/><polygon class="fab80249-d94c-40f1-b899-06d1912ebf9d" points="470.78 240.56 475.78 253.49 508.23 251.17 504.91 229.3 470.78 240.56"/><path class="c4fb79d1-6418-4776-b9f9-83b5a4cf2be7" d="M478.07,253.49s-21.87,77.58-19.88,93.45c0,0-10.6,25.18-6.63,39.1,0,0-14.58,104.71-23.86,110,0,0,27,12.22,27.83,11.93,9.28-3.31-.66,0-.66,0s.66-10.6,4.64-15.24c0,0,23.86-65,22.53-98.08l31.81-76.88Z"/><path class="4752fad1-7f1e-4389-b139-1c1bf2f6f8a8" d="M478.07,253.49s-21.87,77.58-19.88,93.45c0,0-10.6,25.18-6.63,39.1,0,0-14.58,104.71-23.86,110,0,0,27,12.22,27.83,11.93,9.28-3.31-.66,0-.66,0s.66-10.6,4.64-15.24c0,0,23.86-65,22.53-98.08l31.81-76.88Z"/><path class="c4fb79d1-6418-4776-b9f9-83b5a4cf2be7" d="M474.1,249.51,488.68,284s11.27,56.33,23.2,71.57l9.28,23.86,15.25,19.89s47.72,75.55,44.4,98.08c0,0,29.82,8,29.16-2,0,0-7.29-13.92-7.29-21.21,0,0-22.53-78.86-37.78-87.48,0,0-12.52-22.33-12.4-34.89a71.06,71.06,0,0,0-1-12c-2.23-13.86-5.94-40.38-2.54-45.23,4.64-6.63,12.59-37.11-9.94-57.66Z"/><path class="4752fad1-7f1e-4389-b139-1c1bf2f6f8a8" d="M610,495.39s-7.29-13.92-7.29-21.21c0,0-22.53-78.86-37.78-87.48,0,0-12.52-22.33-12.4-34.89a71.06,71.06,0,0,0-1-12c-2.23-13.86-5.94-40.38-2.54-45.23,4.64-6.63,12.59-37.11-9.94-57.66l-3.84.75c21.54,20.53,13.73,50.36,9.15,56.91s4,53.68,4,53.68c-3.31,11.27,11.93,38.44,11.93,38.44,15.24,8.62,37.78,87.48,37.78,87.48,0,7.29,7.29,21.21,7.29,21.21.22,3.28-2.89,4.61-7.15,4.92C604.58,500.68,610.25,499.78,610,495.39Z"/><path class="fab80249-d94c-40f1-b899-06d1912ebf9d" d="M504.58,76.54s12.59,19.22,9.28,25.18l32.47-8s-8.62-9.28-6.63-31.81Z"/><path class="4752fad1-7f1e-4389-b139-1c1bf2f6f8a8" d="M551,90.46s-27.17-6-44.4,14.58c-7.8,9.3-12.07,15.62-14.41,19.74a70.39,70.39,0,0,1-7.64,10.75c-4.31,5.09-9.59,16.06-7.11,38.43l-8,71.57s23.2-2,29.16,0,47.72-4.64,47.72-4.64-16.57-19.88,2.65-66.27S551,90.46,551,90.46Z"/><path class="43648763-8f1d-47d2-82f2-29d47de0c13e" d="M551,89.8s-27.17-6-44.4,14.58c-7.8,9.3-12.07,15.62-14.41,19.74a70.39,70.39,0,0,1-7.64,10.75c-4.31,5.09-9.59,16.06-7.11,38.43l-8,71.57s23.2-2,29.16,0,47.72-4.64,47.72-4.64-16.57-19.88,2.65-66.27S551,89.8,551,89.8Z"/><path class="4752fad1-7f1e-4389-b139-1c1bf2f6f8a8" d="M518.17,151.07s-25.85,37.14-37.76,43.77l-6.63,3.31S515.52,151.07,518.17,151.07Z"/><path class="fab80249-d94c-40f1-b899-06d1912ebf9d" d="M494,132.21s17-6.69,24.29,15.49a5.32,5.32,0,0,1-1.14,5.27l-39.72,42.86s-11.27,6.63-16.57,2.65-73.56-15.91-73.56-15.91-19,5.57-26.69-3.72a2.87,2.87,0,0,1,.93-4.42c3.7-1.87,9.87-.79,17.15-1.69a60.35,60.35,0,0,1,16.8.35c22.73,3.56,76.28,9.44,84.59-12.39C490.66,132.88,494,132.21,494,132.21Z"/><path class="4752fad1-7f1e-4389-b139-1c1bf2f6f8a8" d="M493.65,132.54s20.54-3.31,25.18,17.23v-1.33S512.87,125.92,493.65,132.54Z"/><path class="4752fad1-7f1e-4389-b139-1c1bf2f6f8a8" d="M540.41,63.29,505.24,77.87s1.59,2.42,3.48,5.81c3.43,1.38,8.17.49,12.09.49,8,0,13.85-2.11,19.22-7.29C539.54,72.9,539.88,68.78,540.41,63.29Z"/><circle class="fab80249-d94c-40f1-b899-06d1912ebf9d" cx="519.16" cy="54.67" r="29.82"/><path class="4752fad1-7f1e-4389-b139-1c1bf2f6f8a8" d="M519.21,50.64c.65,2.3-1.26,4.43-2.64,6.38-4.83,6.83-3.94,16.13-1.73,24.19,1.08,4,2.7,8.15,6.23,10.22,2.82,1.65,6.29,1.58,9.45,2.41,5.69,1.49,10.29,6,13,11.19s3.68,11.18,4,17.06a86.31,86.31,0,0,1-11.75,48.61c8.85,1.51,18-2.52,24.35-8.89S570.29,147,573,138.43a111.34,111.34,0,0,0,4.68-24.23c.71-8.94.34-17.92,0-26.88-.43-10.45-.93-21.18-5.15-30.75-1.65-3.74-3.85-7.26-4.87-11.22a65.65,65.65,0,0,1-1.17-8.22c-1.38-10.83-6.51-21.33-14.92-28.29s-20.16-10-30.68-7.13c-6,1.67-11.38,5.12-16.36,8.9-8.06,6.13-17.31,16-11.62,26.5C497.82,46.3,508.76,52.28,519.21,50.64Z"/><path class="fbdfc600-786e-4588-b7ba-47c2aa62a449" d="M519.87,50c.65,2.3-1.26,4.43-2.64,6.38-4.83,6.83-3.94,16.13-1.73,24.19,1.08,4,2.7,8.15,6.23,10.22,2.82,1.65,6.29,1.58,9.45,2.41,5.69,1.49,10.29,6,13,11.19s3.68,11.18,4,17.06a86.31,86.31,0,0,1-11.77,48.64c8.85,1.51,18-2.52,24.35-8.89s10.17-14.81,12.84-23.38a111.34,111.34,0,0,0,4.68-24.23c.71-8.94.34-17.92,0-26.88-.43-10.45-.93-21.18-5.15-30.75-1.65-3.74-3.85-7.26-4.87-11.22a65.65,65.65,0,0,1-1.17-8.22c-1.38-10.83-6.51-21.33-14.92-28.29S532-1.79,521.49,1.08c-6,1.67-11.38,5.12-16.36,8.9-8.06,6.13-17.31,16-11.62,26.5C498.49,45.64,509.41,51.62,519.87,50Z"/><path class="4752fad1-7f1e-4389-b139-1c1bf2f6f8a8" d="M522.81,198.15s12.59,0,17.23-6"/><path class="4752fad1-7f1e-4389-b139-1c1bf2f6f8a8" d="M522.81,202.79s12.59,0,17.23-6"/><path class="4752fad1-7f1e-4389-b139-1c1bf2f6f8a8" d="M534.74,126.58s-2,15.91-9.28,23.2"/><g class="486ef7d3-a737-43c5-b8be-7bd829bc002c"><path class="265ab658-ec41-4fbd-a386-2d14d72bf8f5" d="M247.41,523.69v-.16l-.24.08Z"/></g><g class="486ef7d3-a737-43c5-b8be-7bd829bc002c"><path class="8e782bd7-92b0-43f8-9058-e773a192279b" d="M246.71,523.69a1.15,1.15,0,0,0,.45-.08C245.62,523.07,237.83,520.51,246.71,523.69Z"/></g><path class="000c96b0-0840-4ed3-b943-3933ccf3612f" d="M346.16,172.63c-5.06-2.47-15.86-6.69-25.14-3.2,0,0-89,17.64-100.22-10.86l-1.53-3.85a41.41,41.41,0,0,0,.29-5.63,39.62,39.62,0,0,0-.49-6.91,24.17,24.17,0,0,0-3.77-9.34,60.63,60.63,0,0,1-5.39-11.71,44.33,44.33,0,0,0-25.43-26c.17-4.26,3.18-10.55,5.91-15.44h.09l.83-1.4A30.56,30.56,0,0,0,211,50a29.69,29.69,0,0,0-5.09-16.62c9.41-1.51,6.19-9.51.37-16.37a44.73,44.73,0,0,0-3.61-3.78A42.16,42.16,0,0,0,182,2.07c-.93-.2-1.87-.35-2.81-.48A39,39,0,0,0,145.3,5.74,17.48,17.48,0,0,0,128.64-5.93a17.25,17.25,0,0,0-17.52,17,17.25,17.25,0,0,0,17.52,17h1a35.61,35.61,0,0,0-1,8.17c0,17.12,12.13,31.5,28.53,35.52l.29.27a6.13,6.13,0,0,1-.09.85l.07.06a39.52,39.52,0,0,1-4.68,14.34l-.62-.15c-12.93,9-17.61,22.65-17.5,36.87-.07,12.08,3.27,24.72,8,35a32,32,0,0,1,2.52,13c-.25,15.4-7.34,33.88-12.16,44.7-1.91,4.29-29.6,71.25-29.6,71.25l.63-.16-.63,1.52c6.06-1.7,12.56-.92,18.08.57a29.59,29.59,0,0,0,22.66-3.2,29.58,29.58,0,0,0,3.77,9.08c3.59,5-.33,32.12-2.69,46.31a70.48,70.48,0,0,0-1,12.28c.13,12.87-13.11,35.73-13.11,35.73-16.12,8.82-40,89.56-40,89.56,0,4.32-2.58,10.9-4.75,15.69h0c-1.58,3.49-3,6-3,6a4.43,4.43,0,0,0,0,.74v.1a3.75,3.75,0,0,0,.07.38l-9.2,23.21c25.23,13.57,59.57,15.61,59.57,15.61,27.33,2,12.62-12.89,12.62-12.89-17,0-28.7-16.68-33.43-24.81l1.19-.29c-3.5-23.07,47-100.42,47-100.42l16.12-20.36,9.81-24.53c2.73-3.38,5.44-8.74,8-15.06l23.54,55.06c-1.4,33.93,23.83,100.42,23.83,100.42,3.91,4.42,4.79,14.13,4.89,15.45l.71-.24-1.4,23.47c8.41,5.43,71.49-10.86,71.49-10.86,15.42-9.5,5.61-12.21,5.61-12.21-15.74,5.08-38.56-5.82-49-11.61l1.37-.6C266.39,496.46,251,389.26,251,389.26c4.21-14.25-7-40-7-40,1.28-9.9-6.78-43.15-13.28-67.68A134,134,0,0,0,255.54,279c-.52-.33-1-.68-1.53-1,1-.19,1.53-.31,1.53-.31-21.66-13.85-34-60.63-39.33-87.13a28,28,0,0,0,4.29,3l7,3.39-.8-.87c3.91,1.73,10.65,4,14.47,1.21C246.78,193.26,319,181,319,181s20,5.71,28.23-3.81a2.91,2.91,0,0,0-1-4.61Z"/><circle class="57b6ccd0-1cab-47a8-89a3-2a0e655f0e40" cx="168.91" cy="43.07" r="35.79"/><path class="fab80249-d94c-40f1-b899-06d1912ebf9d" d="M195.75,78.53s-12.59,19.22-9.28,25.18l-32.47-8s8.62-9.28,6.63-31.81Z"/><path class="4752fad1-7f1e-4389-b139-1c1bf2f6f8a8" d="M160,65.28l35.12,14.58s-1.59,2.42-3.48,5.81c-3.43,1.38-8.17.49-12.09.49-8,0-13.85-2.11-19.22-7.29C160.79,74.89,160.41,70.77,160,65.28Z"/><circle class="fab80249-d94c-40f1-b899-06d1912ebf9d" cx="181.17" cy="56.66" r="29.82"/><circle class="57b6ccd0-1cab-47a8-89a3-2a0e655f0e40" cx="133.12" cy="18.55" r="16.57"/><path class="4752fad1-7f1e-4389-b139-1c1bf2f6f8a8" d="M202.35,40.67c-7.46-.13-15.94-1.63-21.53,3.3-4,3.54-5.08,9.26-6.44,14.44-2,7.78-6.58,16.33-14.54,17.49-4.86.71-9.75-1.71-13.2-5.21s-5.68-8-7.79-12.41-4.17-9-4-13.89c.21-5.81,3.6-11,7.06-15.65a65.18,65.18,0,0,1,7-8.2,39,39,0,0,1,55.14,1q1.32,1.37,2.51,2.87C212.72,32,215.81,40.9,202.35,40.67Z"/><path class="57b6ccd0-1cab-47a8-89a3-2a0e655f0e40" d="M201.69,40c-7.46-.13-15.94-1.63-21.53,3.3-4,3.54-5.08,9.26-6.44,14.44-2,7.78-6.58,16.33-14.54,17.49-4.86.71-9.75-1.71-13.2-5.21s-5.68-8-7.79-12.41-4.17-9-4-13.89c.21-5.81,3.6-11,7.06-15.65a65.18,65.18,0,0,1,7-8.2,39,39,0,0,1,55.14,1q1.32,1.37,2.51,2.87C212.05,31.3,215.15,40.24,201.69,40Z"/><path class="4892cf28-91da-4741-909e-be18007e48bb" d="M266,495.39S297.81,516.6,317.69,510c0,0,9.28,2.65-5.3,11.93,0,0-59.65,15.91-67.6,10.6l2-34.46Z"/><path class="4892cf28-91da-4741-909e-be18007e48bb" d="M116.22,495.39s12.59,28.5,33.8,28.5c0,0,13.92,14.58-11.93,12.59,0,0-32.47-2-56.33-15.24L93.17,491.5Z"/><path class="0435df7e-d47e-42fe-b96c-726a9b54ef3f" d="M222.26,255.48s21.87,77.54,19.88,93.44c0,0,10.6,25.18,6.63,39.1,0,0,14.58,104.71,23.86,110,0,0-27,12.22-27.83,11.93-9.28-3.31.66,0,.66,0s-.66-10.6-4.64-15.24c0,0-23.86-65-22.53-98.08l-31.81-76.88Z"/><path class="4752fad1-7f1e-4389-b139-1c1bf2f6f8a8" d="M222.26,255.48s21.87,77.54,19.88,93.44c0,0,10.6,25.18,6.63,39.1,0,0,14.58,104.71,23.86,110,0,0-27,12.22-27.83,11.93-9.28-3.31.66,0,.66,0s-.66-10.6-4.64-15.24c0,0-23.86-65-22.53-98.08l-31.81-76.88Z"/><path class="0435df7e-d47e-42fe-b96c-726a9b54ef3f" d="M226.24,251.5,211.66,286s-11.27,56.33-23.2,71.57l-9.28,23.86-15.24,19.88s-47.72,75.55-44.4,98.08c0,0-29.82,8-29.16-2,0,0,7.29-13.92,7.29-21.21,0,0,22.53-78.86,37.78-87.48,0,0,12.52-22.33,12.4-34.89a71.06,71.06,0,0,1,1-12c2.23-13.86,5.94-40.38,2.54-45.23-4.64-6.63-12.59-37.11,9.94-57.66Z"/><path class="4752fad1-7f1e-4389-b139-1c1bf2f6f8a8" d="M90.41,497.37s7.29-13.92,7.29-21.21c0,0,22.53-78.86,37.78-87.48,0,0,12.52-22.33,12.4-34.89a71.06,71.06,0,0,1,1-12c2.23-13.86,5.94-40.38,2.54-45.23-4.64-6.63-12.59-37.11,9.94-57.66l3.84.75c-21.61,20.54-13.79,50.42-9.21,56.92s-4,53.68-4,53.68c3.31,11.27-11.93,38.44-11.93,38.44-15.24,8.62-37.78,87.48-37.78,87.48,0,7.29-7.29,21.21-7.29,21.21-.22,3.28,2.89,4.61,7.15,4.92C95.75,502.67,90.08,501.77,90.41,497.37Z"/><path class="4752fad1-7f1e-4389-b139-1c1bf2f6f8a8" d="M155.35,94.07,180,100.13a42.62,42.62,0,0,1,30,27.3,60.15,60.15,0,0,0,5.09,11.44,24,24,0,0,1,3.56,9.13c1,6.49.92,17-5.88,28.92,0,0,11.21,84.17,40.32,103.39,0,0-28.41,6.54-53.31-1.55-16.69-5.42-35-3.14-49.3,7.1l-.62.45a27.34,27.34,0,0,1-23.43,4.51c-5.22-1.45-11.37-2.21-17.1-.55,0,0,26.19-65.39,28-69.59,6.1-14.19,16.1-41.87,9.1-57.61C136.68,141.16,133.12,108.69,155.35,94.07Z"/><path class="2d5ed35a-176d-48c4-9ab4-500b6b0f8f4f" d="M155.35,92.78,180,98.84a42.62,42.62,0,0,1,30,27.3,60.15,60.15,0,0,0,5.09,11.44,24,24,0,0,1,3.56,9.13c1,6.49.92,17-5.88,28.92,0,0,11.21,84.17,40.32,103.39,0,0-28.41,6.54-53.31-1.55-16.69-5.42-35-3.14-49.3,7.1l-.62.45a27.34,27.34,0,0,1-23.43,4.48c-5.22-1.45-11.37-2.21-17.1-.55,0,0,26.19-65.39,28-69.59,6.1-14.2,16.1-41.88,9.1-57.66C136.68,139.83,133.12,108.69,155.35,92.78Z"/><path class="4752fad1-7f1e-4389-b139-1c1bf2f6f8a8" d="M182.17,153.07S208,190.18,220,196.81l6.63,3.31S184.82,153.07,182.17,153.07Z"/><path class="fab80249-d94c-40f1-b899-06d1912ebf9d" d="M206.35,134.2s-17-6.69-24.29,15.49A5.32,5.32,0,0,0,183.2,155l39.72,42.87s11.27,6.63,16.57,2.65,73.56-15.91,73.56-15.91,18.82,5.53,26.61-3.63a2.94,2.94,0,0,0-.85-4.52c-4.11-2.07-11.63-2-19.72-2.69a32,32,0,0,0-8.38.38c-17.3,3.07-81.3,12.61-90.44-11.41C209.67,134.86,206.35,134.2,206.35,134.2Z"/><path class="4752fad1-7f1e-4389-b139-1c1bf2f6f8a8" d="M206.69,134.53s-20.54-3.31-25.18,17.23v-1.33S187.47,127.9,206.69,134.53Z"/><path class="a47da233-fa48-404a-8341-4f5d9b5cad6d" d="M421.41,103.38a73.56,73.56,0,1,1-73.56-73.56h0A73.56,73.56,0,0,1,421.41,103.38Zm-42-10.48c1.46-9.79-6-15-16.18-18.56l3.29-13.27-8.11-2L355.19,72c-2.12-.53-4.3-1-6.47-1.52l3.24-13-8.07-2-3.31,13.25q-2.64-.6-5.15-1.21h0L324.3,64.72l-2.15,8.62s6,1.37,5.86,1.46c3.27.82,3.86,3,3.76,4.69L328,94.6a6.69,6.69,0,0,1,.84.27l-.85-.21-5.28,21.16a2.94,2.94,0,0,1-3.69,1.92h0c.08.12-5.87-1.46-5.87-1.46l-4,9.24,10.5,2.62c2,.49,3.87,1,5.75,1.48L322.05,143l8.06,2,3.31-13.27q3.21.87,6.43,1.67l-3.3,13.21,8.07,2L348,135.25c13.76,2.6,24.12,1.55,28.47-10.89,3.51-10-.17-15.8-7.42-19.57,5.27-1.22,9.25-4.68,10.31-11.85ZM361,118.76c-2.49,10-19.37,4.6-24.84,3.25l4.43-17.77c5.45,1.37,23,4.07,20.39,14.52Zm2.5-26c-2.28,9.12-16.32,4.48-20.88,3.35l4-16.11c4.55,1.13,19.23,3.25,16.82,12.76Z"/><path class="513a6f56-0795-4ed1-a6a9-b61e32f26371" d="M339.35,491.07s-15.76-53.5,3-92.88a84.51,84.51,0,0,0,6.83-53,142.13,142.13,0,0,0-7.51-24.88"/><path class="1693d3f7-35b3-4f36-82dc-702330c33aa1" d="M353.28,295.4c0,6.56-11.87,25.57-11.87,25.57s-11.87-19-11.87-25.57a11.88,11.88,0,0,1,23.75,0Z"/><path class="1693d3f7-35b3-4f36-82dc-702330c33aa1" d="M372.9,331.72c-3.56,5.5-23.86,15-23.86,15s.37-22.41,3.93-27.92a11.87,11.87,0,0,1,19.93,12.91Z"/><path class="1693d3f7-35b3-4f36-82dc-702330c33aa1" d="M372,393.79c-5.85,3-28.18.91-28.18.91s11.63-19.16,17.49-22.12A11.87,11.87,0,0,1,372,393.78Z"/><path class="1693d3f7-35b3-4f36-82dc-702330c33aa1" d="M360.82,440.61c-5.27,3.9-27.62,5.66-27.62,5.66s8.23-20.85,13.5-24.75a11.87,11.87,0,1,1,14.12,19.09Z"/><path class="1693d3f7-35b3-4f36-82dc-702330c33aa1" d="M324.11,348c4.7,4.57,26.62,9.3,26.62,9.3s-5.37-21.77-10.07-26.33a11.87,11.87,0,1,0-17.14,16.42q.29.3.59.58Z"/><path class="1693d3f7-35b3-4f36-82dc-702330c33aa1" d="M311.68,402.92c5.85,3,28.18.91,28.18.91s-11.64-19.16-17.45-22.11a11.87,11.87,0,1,0-10.69,21.2Z"/><path class="1693d3f7-35b3-4f36-82dc-702330c33aa1" d="M306.92,458c5.27,3.9,27.62,5.66,27.62,5.66s-8.23-20.85-13.5-24.75A11.87,11.87,0,1,0,306.92,458Z"/><path class="35cbef8a-70ba-4bf9-8a9a-16343ee80d0e" d="M353.28,295.4c0,6.56-11.87,25.57-11.87,25.57s-11.87-19-11.87-25.57a11.88,11.88,0,0,1,23.75,0Z"/><path class="35cbef8a-70ba-4bf9-8a9a-16343ee80d0e" d="M372.9,331.72c-3.56,5.5-23.86,15-23.86,15s.37-22.41,3.93-27.92a11.87,11.87,0,0,1,19.93,12.91Z"/><path class="35cbef8a-70ba-4bf9-8a9a-16343ee80d0e" d="M372,393.79c-5.85,3-28.18.91-28.18.91s11.63-19.16,17.49-22.12A11.87,11.87,0,0,1,372,393.78Z"/><path class="35cbef8a-70ba-4bf9-8a9a-16343ee80d0e" d="M360.82,440.61c-5.27,3.9-27.62,5.66-27.62,5.66s8.23-20.85,13.5-24.75a11.87,11.87,0,1,1,14.12,19.09Z"/><path class="35cbef8a-70ba-4bf9-8a9a-16343ee80d0e" d="M324.11,348c4.7,4.57,26.62,9.3,26.62,9.3s-5.37-21.77-10.07-26.33a11.87,11.87,0,1,0-17.14,16.42q.29.3.59.58Z"/><path class="35cbef8a-70ba-4bf9-8a9a-16343ee80d0e" d="M311.68,402.92c5.85,3,28.18.91,28.18.91s-11.64-19.16-17.45-22.11a11.87,11.87,0,1,0-10.69,21.2Z"/><path class="35cbef8a-70ba-4bf9-8a9a-16343ee80d0e" d="M306.92,458c5.27,3.9,27.62,5.66,27.62,5.66s-8.23-20.85-13.5-24.75A11.87,11.87,0,1,0,306.92,458Z"/></svg>