<svg id="a4c39813-c99d-4a15-a0c1-c9f65be3df13" data-name="f921693e-33a8-40f4-b606-3710578972cc" xmlns="http://www.w3.org/2000/svg" xmlns:xlink="http://www.w3.org/1999/xlink" viewBox="0 0 859.4 767.78"><defs><style>.e2d4036e-eaec-4d94-9eac-24ac3348f1dd{fill:#3f3d56;}.\30 239016c-eb53-4ddf-8851-fedd78ce02a7,.af72c636-61a2-43ce-a1b5-73649ee92e71{fill:#6c63ff;}.af72c636-61a2-43ce-a1b5-73649ee92e71{opacity:0.04;}.\35 ffd6bf3-459f-4c2f-9f96-83be0c7c7255,.\36 4af6566-8fa7-44b4-b272-1d928001cd3f,.\38 5de3614-a59c-4ab4-a5ed-96e35786d4d5,.af72c636-61a2-43ce-a1b5-73649ee92e71,.ea59de23-d8f2-4b83-824d-44db303a3d1e{isolation:isolate;}.a3597eb2-1381-48cc-955c-f79f0943ae7f{opacity:0.7;}.\30 66f93e8-6279-4640-90c7-6846b68c43b9{fill:url(#39994777-0994-45a0-9404-160c6e07c024);}.\39 0ba82ae-e8c2-4e41-8b41-6c0251b4740a{fill:#38d39f;}.\36 4af6566-8fa7-44b4-b272-1d928001cd3f{fill:#4d8af0;}.\33 8e4f34e-80c6-47ff-ba84-21e1554c119e,.\35 ffd6bf3-459f-4c2f-9f96-83be0c7c7255,.\36 4af6566-8fa7-44b4-b272-1d928001cd3f,.ea59de23-d8f2-4b83-824d-44db303a3d1e{opacity:0.5;}.\35 ffd6bf3-459f-4c2f-9f96-83be0c7c7255{fill:#f55f44;}.dab2c51a-8db2-4941-aa9a-7456c4d6f122,.ea59de23-d8f2-4b83-824d-44db303a3d1e{fill:#47e6b1;}.e57ccbff-d986-4f99-9229-c80bfb7f02d3{fill:#ffb9b9;}.\37 6ffdf7f-d019-4fc7-b403-a67552ea9583{fill:#575a89;}.\38 5de3614-a59c-4ab4-a5ed-96e35786d4d5{opacity:0.1;}.aa0612a9-440a-49dd-b509-3b7eb79450eb{fill:#2f2e41;}</style><linearGradient id="39994777-0994-45a0-9404-160c6e07c024" x1="344.92" y1="398.6" x2="505.4" y2="398.6" gradientTransform="matrix(1, 0, 0, -1, 0, 768)" gradientUnits="userSpaceOnUse"><stop offset="0" stop-color="gray" stop-opacity="0.25"/><stop offset="0.54" stop-color="gray" stop-opacity="0.12"/><stop offset="1" stop-color="gray" stop-opacity="0.1"/></linearGradient></defs><title>fair-for-everyone-feature</title><path class="e2d4036e-eaec-4d94-9eac-24ac3348f1dd" d="M431.4,10.75l-269.7,166s0,342.31,269.7,529c269.7-186.72,269.7-529,269.7-529Z"/><path class="af72c636-61a2-43ce-a1b5-73649ee92e71" d="M433,10.75l-4.61,2.84V702.51c1.53,1.08,3.06,2.17,4.61,3.24,269.7-186.72,269.7-529,269.7-529Z"/><g class="a3597eb2-1381-48cc-955c-f79f0943ae7f"><polygon class="066f93e8-6279-4640-90c7-6846b68c43b9" points="366.11 347.07 416.95 393.67 479.98 302.75 505.4 323.94 416.95 436.04 344.92 355.54 366.11 347.07"/></g><polygon class="90ba82ae-e8c2-4e41-8b41-6c0251b4740a" points="378.11 349.87 419.35 387.67 477.78 301.75 498.4 318.94 419.35 422.04 360.92 356.74 378.11 349.87"/><path class="64af6566-8fa7-44b4-b272-1d928001cd3f" d="M165.29,48a3.67,3.67,0,0,1-2-4.44,1.77,1.77,0,0,0,.08-.41h0A1.84,1.84,0,0,0,160,41.89h0a1.77,1.77,0,0,0-.2.36,3.67,3.67,0,0,1-4.44,2,1.77,1.77,0,0,0-.41-.08h0a1.84,1.84,0,0,0-1.22,3.31h0a1.77,1.77,0,0,0,.36.2,3.67,3.67,0,0,1,2,4.44,1.77,1.77,0,0,0-.08.41h0a1.84,1.84,0,0,0,3.31,1.22h0a1.77,1.77,0,0,0,.2-.36,3.67,3.67,0,0,1,4.44-2,1.77,1.77,0,0,0,.41.08h0a1.84,1.84,0,0,0,1.22-3.31h0A1.77,1.77,0,0,0,165.29,48Z"/><path class="64af6566-8fa7-44b4-b272-1d928001cd3f" d="M19.29,373a3.67,3.67,0,0,1-2-4.44,1.77,1.77,0,0,0,.08-.41h0A1.84,1.84,0,0,0,14,366.89h0a1.77,1.77,0,0,0-.2.36,3.67,3.67,0,0,1-4.44,2,1.77,1.77,0,0,0-.41-.08H9a1.84,1.84,0,0,0-1.22,3.31h0a1.77,1.77,0,0,0,.36.2,3.67,3.67,0,0,1,2,4.44,1.77,1.77,0,0,0-.08.41h0a1.84,1.84,0,0,0,3.31,1.22h0a1.77,1.77,0,0,0,.2-.36,3.67,3.67,0,0,1,4.44-2,1.77,1.77,0,0,0,.41.08h0a1.84,1.84,0,0,0,1.22-3.31h0A1.77,1.77,0,0,0,19.29,373Z"/><circle class="5ffd6bf3-459f-4c2f-9f96-83be0c7c7255" cx="748.4" cy="254" r="6"/><circle class="5ffd6bf3-459f-4c2f-9f96-83be0c7c7255" cx="121.4" cy="683" r="6"/><circle class="5ffd6bf3-459f-4c2f-9f96-83be0c7c7255" cx="850.4" cy="485" r="6"/><path class="64af6566-8fa7-44b4-b272-1d928001cd3f" d="M704.29,77a3.67,3.67,0,0,1-2-4.44,1.77,1.77,0,0,0,.08-.41h0A1.84,1.84,0,0,0,699,70.89h0a1.77,1.77,0,0,0-.2.36,3.67,3.67,0,0,1-4.44,2,1.77,1.77,0,0,0-.41-.08h0a1.84,1.84,0,0,0-1.22,3.31h0a1.77,1.77,0,0,0,.36.2,3.67,3.67,0,0,1,2,4.44,1.77,1.77,0,0,0-.08.41h0a1.84,1.84,0,0,0,3.31,1.22h0a1.77,1.77,0,0,0,.2-.36,3.67,3.67,0,0,1,4.44-2,1.77,1.77,0,0,0,.41.08h0a1.84,1.84,0,0,0,1.22-3.31h0A1.77,1.77,0,0,0,704.29,77Z"/><path class="64af6566-8fa7-44b4-b272-1d928001cd3f" d="M804.29,705a3.67,3.67,0,0,1-2-4.44,1.77,1.77,0,0,0,.08-.41h0a1.84,1.84,0,0,0-3.31-1.22h0a1.77,1.77,0,0,0-.2.36,3.67,3.67,0,0,1-4.44,2,1.77,1.77,0,0,0-.41-.08h0a1.84,1.84,0,0,0-1.22,3.31h0a1.77,1.77,0,0,0,.36.2,3.67,3.67,0,0,1,2,4.44,1.77,1.77,0,0,0-.08.41h0a1.84,1.84,0,0,0,3.31,1.22h0a1.77,1.77,0,0,0,.2-.36,3.67,3.67,0,0,1,4.44-2,1.77,1.77,0,0,0,.41.08h0a1.84,1.84,0,0,0,1.22-3.31h0A1.77,1.77,0,0,0,804.29,705Z"/><path class="64af6566-8fa7-44b4-b272-1d928001cd3f" d="M12.29,183a3.67,3.67,0,0,1-2-4.44,1.77,1.77,0,0,0,.08-.41h0A1.84,1.84,0,0,0,7,176.89H7a1.77,1.77,0,0,0-.2.36,3.67,3.67,0,0,1-4.44,2,1.77,1.77,0,0,0-.41-.08H2a1.84,1.84,0,0,0-1.22,3.31h0a1.77,1.77,0,0,0,.36.2,3.67,3.67,0,0,1,2,4.44,1.77,1.77,0,0,0-.08.41h0a1.84,1.84,0,0,0,3.31,1.22h0a1.77,1.77,0,0,0,.2-.36,3.67,3.67,0,0,1,4.44-2,1.77,1.77,0,0,0,.41.08h0a1.84,1.84,0,0,0,1.22-3.31h0A1.77,1.77,0,0,0,12.29,183Z"/><circle class="ea59de23-d8f2-4b83-824d-44db303a3d1e" cx="79.4" cy="284" r="6"/><circle class="ea59de23-d8f2-4b83-824d-44db303a3d1e" cx="853.4" cy="332" r="6"/><g class="38e4f34e-80c6-47ff-ba84-21e1554c119e"><rect class="dab2c51a-8db2-4941-aa9a-7456c4d6f122" x="583.4" width="3" height="17"/><rect class="dab2c51a-8db2-4941-aa9a-7456c4d6f122" x="576.4" y="7" width="17" height="3"/></g><g class="38e4f34e-80c6-47ff-ba84-21e1554c119e"><rect class="dab2c51a-8db2-4941-aa9a-7456c4d6f122" x="594.4" y="666" width="3" height="17"/><rect class="dab2c51a-8db2-4941-aa9a-7456c4d6f122" x="587.4" y="673" width="17" height="3"/></g><g class="38e4f34e-80c6-47ff-ba84-21e1554c119e"><rect class="dab2c51a-8db2-4941-aa9a-7456c4d6f122" x="26.4" y="702" width="3" height="17"/><rect class="dab2c51a-8db2-4941-aa9a-7456c4d6f122" x="19.4" y="709" width="17" height="3"/></g><g class="38e4f34e-80c6-47ff-ba84-21e1554c119e"><rect class="dab2c51a-8db2-4941-aa9a-7456c4d6f122" x="709.4" y="396" width="3" height="17"/><rect class="dab2c51a-8db2-4941-aa9a-7456c4d6f122" x="702.4" y="403" width="17" height="3"/></g><polygon class="ea59de23-d8f2-4b83-824d-44db303a3d1e" points="795.61 123.02 802.05 128.92 811.18 115.5 814.4 118.19 802.05 134.29 792.92 124.09 795.61 123.02"/><rect class="0239016c-eb53-4ddf-8851-fedd78ce02a7" x="589.99" y="239.69" width="22.24" height="28.6" transform="translate(-9.39 23.48) rotate(-2.22)"/><path class="e57ccbff-d986-4f99-9229-c80bfb7f02d3" d="M511.41,339.35s-30.78-14.71-30.29-2,31,21.06,31,21.06Z"/><path class="90ba82ae-e8c2-4e41-8b41-6c0251b4740a" d="M528.3,446.81S513.78,482.35,508.41,508s-13.54,60.94-3,86,40.39,98.6,40.7,106.54-2.56,16,3.79,15.75,40.91-11.13,42.31-16-11.79-17-11.79-17L547.82,581.2l34-66.51,24.52,99.21,4.8,123.83s23.57-7.27,27-1c0,0,10.56-14.72,11.9-21.13S645,587,645,587s21.63-139.16,4.17-138.49S563.33,407.29,528.3,446.81Z"/><path class="76ffdf7f-d019-4fc7-b403-a67552ea9583" d="M549.63,709.91s-16.11,35.6-17.63,37.25-12,18-4.09,17.65,26.68-9,40.48-22.24,32-36.22,30.34-37.74S585.77,699,585.77,699Z"/><path class="76ffdf7f-d019-4fc7-b403-a67552ea9583" d="M614,729.68s-1,15.94-3.9,22.41-2.56,16,5.38,15.69,28.45-4.28,28.45-4.28,1.22-9.59-.43-11.11-8.68-18.74-5.69-23.63S614,729.68,614,729.68Z"/><path class="e57ccbff-d986-4f99-9229-c80bfb7f02d3" d="M625.74,212.49s16.92,26.37,23.52,32.48-12,19.54-12,19.54L604.08,269s.42-30.22-1.29-33.34S625.74,212.49,625.74,212.49Z"/><path class="90ba82ae-e8c2-4e41-8b41-6c0251b4740a" d="M596.86,247s6.84,12.45,13.19,12.21,39.2-14.24,40.6-19.06,10.88,34.56,10.88,34.56L581.16,416.14l-19.6-13.55,9.5-83,7.8-44.82Z"/><path class="76ffdf7f-d019-4fc7-b403-a67552ea9583" d="M653.62,373.58c-3.21,6.71-5.21,13.7-4.93,20.86,0,.32,0,.64.05,1,.76,14.69,6.17,31.69,8.12,44,1.41,8.86,1,15.34-4.18,16.86-12.58,3.67,1.83,6.29-46.83,22.48s-57.15,2.22-57.27-1,6.89-27.3,5.24-28.82-23.07,20-29.55,17-.74-19.05-.74-19.05,14.58-34,14.27-41.89,22.09-45.37,22.09-45.37l15.23-99.17s5.86-12.95,13.73-14.84,14.41,2.62,14.41,2.62L590.1,277.47l-13.91,51.42,2.33,19s16.17-34,26.79-47.15,33.26-44.22,33.26-44.22,5.29-17.84,1.3-23.17,16.65-6.15,25.45,15.77c4.66,11.62,12.24,28.94,17,45.07,4.23,14.29,6.22,27.65,2,35.28C677.93,341.13,661.83,356.46,653.62,373.58Z"/><path class="85de3614-a59c-4ab4-a5ed-96e35786d4d5" d="M684.33,329.47c-6.4,11.66-22.5,27-30.71,44.12-2.14-7.72-4.76-15.71-4.76-15.71s-10-53.67,19.64-67.54a19.86,19.86,0,0,1,13.79,3.85C686.52,308.47,688.52,321.83,684.33,329.47Z"/><path class="76ffdf7f-d019-4fc7-b403-a67552ea9583" d="M566.54,326.08l-25.15,7.34-34.93,1.35-3.59,30.35,57.4,4.13S574.6,329,566.54,326.08Z"/><path class="e57ccbff-d986-4f99-9229-c80bfb7f02d3" d="M607.56,428.12s-33.65,5.58-26,15.71,37.49-.52,37.49-.52Z"/><path class="85de3614-a59c-4ab4-a5ed-96e35786d4d5" d="M648.74,395.4c.76,14.69,6.17,31.69,8.12,44-10.72,10.15-20.91,19.1-24.76,19.24-7.94.31-20.7-.79-25.4,1s-7.46-28.33-7.46-28.33,2.81-9.65,15.32-14.9C623,412.88,639.21,403.24,648.74,395.4Z"/><path class="76ffdf7f-d019-4fc7-b403-a67552ea9583" d="M668.13,280.81s26.87-4.22,25.41,40.35,2.83,73-8,81.4-45.9,46.3-53.84,46.61-20.7-.79-25.4,1-7.46-28.33-7.46-28.33,2.81-9.65,15.32-14.9S656.2,383,656,376.67s-7.46-28.33-7.46-28.33S638.46,294.68,668.13,280.81Z"/><circle class="e57ccbff-d986-4f99-9229-c80bfb7f02d3" cx="602.05" cy="216.59" r="34.95"/><path class="aa0612a9-440a-49dd-b509-3b7eb79450eb" d="M578.51,166.49a6.75,6.75,0,0,1-2.94,1.47,2.1,2.1,0,0,1-2.43-1.68c-.8,1.66-1.7,3.43-3.33,4.28s-4.16.14-4.39-1.69a7.71,7.71,0,0,1-1.77,3.74c-1,1-2.85,1.21-3.73.12.72,3.91.27,7.93.5,11.89s1.28,8.17,4.28,10.78c4.37,3.8,10.94,2.86,16.69,2.14a5.07,5.07,0,0,1,2.62.14c2.15.92,2.05,3.91,2.08,6.25a17.37,17.37,0,0,0,15.21,16.5,8.71,8.71,0,0,0,6.47-1.58c1.63-1.38,2.47-3.64,4.34-4.68,3-1.69,6.73.77,9,3.45s4.42,6,7.86,6.46c4.56.65,8-4,9.73-8.27a48.22,48.22,0,0,0-1-37.47C628.17,157.62,595.66,154.34,578.51,166.49Z"/></svg>