<svg id="6fbd3323-a855-45d0-80eb-1d3fbc94778e" data-name="Layer 1" xmlns="http://www.w3.org/2000/svg" viewBox="0 0 23.79 23.79"><defs><style>.\39 9944481-2397-4d1d-bf1a-c0738fd9a7a9{fill:#38d39f;}</style></defs><title>key-skeleton</title><path class="99944481-2397-4d1d-bf1a-c0738fd9a7a9" d="M22.7,3l.84-.83A1.19,1.19,0,1,0,21.86.45L20.19,2.13h0L16.83,5.5h0L9.32,13A5.95,5.95,0,1,0,11,14.68L17.66,8l2.52,2.53a1.19,1.19,0,0,0,1.68-1.69h0L19.34,6.34,21,4.66l.83.83a1.19,1.19,0,0,0,1.69-1.68ZM6.05,21.51a3.57,3.57,0,1,1,3.57-3.57A3.57,3.57,0,0,1,6.05,21.51Z" transform="translate(-0.1 -0.1)"/></svg>