<svg id="f16365b8-825e-4e29-948b-8cf50b0ec2cd" data-name="a8904fed-7223-4ff2-9071-b444910320a0" xmlns="http://www.w3.org/2000/svg" viewBox="0 0 1036.12 518.06"><defs><style>.e4706325-b3fa-486e-9567-ff235109a59d{fill:#3f3d56;}.c24e04e4-443c-4d3b-93b7-8acd25f54cc8{fill:#ffcc73;}.\37 06c8f96-c35f-46e5-836c-10f774486a37,.c50062f0-9be5-43b3-b178-f5cdbb3de34e{fill:#38d39f;}.\36 2172488-55ba-4488-93d8-88ef12d93708{opacity:0.1;}.\36 2172488-55ba-4488-93d8-88ef12d93708,.c50062f0-9be5-43b3-b178-f5cdbb3de34e{isolation:isolate;}.c50062f0-9be5-43b3-b178-f5cdbb3de34e{opacity:0.4;}.c7a2e724-ee6b-4346-873d-79a7937cb906{fill:#ccc;}.\38 1cdb589-aa97-42c0-af9a-6656d95ca75c{fill:#f2f2f2;}</style></defs><title>main-illustration-nexthome</title><path class="e4706325-b3fa-486e-9567-ff235109a59d" d="M98,510.61l-2-.44c21.76-96.75,76.43-184.61,154-247.39C440.77,108.56,720.4,138.15,874.62,328.87A444.11,444.11,0,0,1,962.2,509l-1.95.44C914.19,307.23,737,166,529.28,166,324.3,166,142.94,310.93,98,510.61Z"/><circle class="c24e04e4-443c-4d3b-93b7-8acd25f54cc8" cx="853.41" cy="219.9" r="54.32"/><rect class="e4706325-b3fa-486e-9567-ff235109a59d" x="830.78" y="437.06" width="2" height="79"/><path class="706c8f96-c35f-46e5-836c-10f774486a37" d="M851.23,447.12c.13,27.62-19.31,50.11-19.31,50.11s-19.64-22.3-19.77-49.93,19.31-50.11,19.31-50.11S851.11,419.5,851.23,447.12Z"/><path class="62172488-55ba-4488-93d8-88ef12d93708" d="M851.23,447.12c.13,27.62-19.31,50.11-19.31,50.11s-19.64-22.3-19.77-49.93,19.31-50.11,19.31-50.11S851.11,419.5,851.23,447.12Z"/><circle class="c50062f0-9be5-43b3-b178-f5cdbb3de34e" cx="454.8" cy="248.74" r="31.25"/><circle class="c50062f0-9be5-43b3-b178-f5cdbb3de34e" cx="396.97" cy="263.67" r="21.92"/><circle class="c50062f0-9be5-43b3-b178-f5cdbb3de34e" cx="161.97" cy="326.67" r="21.92"/><circle class="c50062f0-9be5-43b3-b178-f5cdbb3de34e" cx="810.09" cy="246.17" r="31.25"/><path class="e4706325-b3fa-486e-9567-ff235109a59d" d="M10.41,507.27c1.69,6.26,7.5,10.14,7.5,10.14s3.06-6.27,1.36-12.54-7.5-10.14-7.5-10.14S8.71,501,10.41,507.27Z"/><path class="706c8f96-c35f-46e5-836c-10f774486a37" d="M12.9,505.93c4.65,4.52,5.22,11.48,5.22,11.48s-7-.38-11.62-4.91S1.28,501,1.28,501,8.25,501.4,12.9,505.93Z"/><path class="e4706325-b3fa-486e-9567-ff235109a59d" d="M622.41,507.27c1.69,6.26,7.5,10.14,7.5,10.14s3.06-6.27,1.36-12.54-7.5-10.14-7.5-10.14S620.71,501,622.41,507.27Z"/><path class="706c8f96-c35f-46e5-836c-10f774486a37" d="M624.9,505.93c4.65,4.52,5.22,11.48,5.22,11.48s-7-.38-11.62-4.91S613.28,501,613.28,501,620.25,501.4,624.9,505.93Z"/><polygon class="e4706325-b3fa-486e-9567-ff235109a59d" points="21.91 460.2 17.78 453.31 56.39 420.21 155.68 420.21 155.68 429.86 119.83 468.48 78.45 476.75 21.91 460.2"/><polygon class="c7a2e724-ee6b-4346-873d-79a7937cb906" points="172.78 439.63 172.78 418.06 159.78 418.06 159.78 424.86 155.68 420.21 122.59 453.31 117.07 458.82 110.17 486.41 122.59 516.75 186.02 516.75 186.02 454.69 172.78 439.63"/><rect class="81cdb589-aa97-42c0-af9a-6656d95ca75c" x="17.78" y="453.31" width="104.81" height="63.44"/><rect class="e4706325-b3fa-486e-9567-ff235109a59d" x="86.04" y="473.3" width="22.07" height="19.31"/><rect class="c7a2e724-ee6b-4346-873d-79a7937cb906" x="57.77" y="472.61" width="19.31" height="44.13"/><polygon class="e4706325-b3fa-486e-9567-ff235109a59d" points="35.7 479.51 35.7 472.62 27.43 472.62 27.43 479.51 35.01 479.51 35.7 479.51"/><polygon class="e4706325-b3fa-486e-9567-ff235109a59d" points="35.01 485.03 27.43 485.03 27.43 491.92 35.7 491.92 35.7 485.03 35.01 485.03"/><rect class="e4706325-b3fa-486e-9567-ff235109a59d" x="41.22" y="472.61" width="8.27" height="6.9"/><rect class="e4706325-b3fa-486e-9567-ff235109a59d" x="41.22" y="485.03" width="8.27" height="6.9"/><polygon class="e4706325-b3fa-486e-9567-ff235109a59d" points="152.24 480.2 152.24 473.3 143.96 473.3 143.96 480.2 151.55 480.2 152.24 480.2"/><polygon class="e4706325-b3fa-486e-9567-ff235109a59d" points="151.55 485.72 143.96 485.72 143.96 492.61 152.24 492.61 152.24 485.72 151.55 485.72"/><rect class="e4706325-b3fa-486e-9567-ff235109a59d" x="157.75" y="473.3" width="8.27" height="6.9"/><rect class="e4706325-b3fa-486e-9567-ff235109a59d" x="157.75" y="485.72" width="8.27" height="6.9"/><polygon class="e4706325-b3fa-486e-9567-ff235109a59d" points="420.91 460.2 416.78 453.31 455.39 420.21 554.68 420.21 554.68 429.86 518.83 468.48 477.45 476.75 420.91 460.2"/><polygon class="c7a2e724-ee6b-4346-873d-79a7937cb906" points="571.78 439.63 571.78 418.06 558.78 418.06 558.78 424.86 554.68 420.21 521.59 453.31 516.07 458.82 509.17 486.41 521.59 516.75 585.02 516.75 585.02 454.69 571.78 439.63"/><rect class="81cdb589-aa97-42c0-af9a-6656d95ca75c" x="416.78" y="453.31" width="104.81" height="63.44"/><rect class="e4706325-b3fa-486e-9567-ff235109a59d" x="485.04" y="473.3" width="22.07" height="19.31"/><rect class="c7a2e724-ee6b-4346-873d-79a7937cb906" x="456.77" y="472.61" width="19.31" height="44.13"/><polygon class="e4706325-b3fa-486e-9567-ff235109a59d" points="434.7 479.51 434.7 472.62 426.43 472.62 426.43 479.51 434.01 479.51 434.7 479.51"/><polygon class="e4706325-b3fa-486e-9567-ff235109a59d" points="434.01 485.03 426.43 485.03 426.43 491.92 434.7 491.92 434.7 485.03 434.01 485.03"/><rect class="e4706325-b3fa-486e-9567-ff235109a59d" x="440.22" y="472.61" width="8.27" height="6.9"/><rect class="e4706325-b3fa-486e-9567-ff235109a59d" x="440.22" y="485.03" width="8.27" height="6.9"/><polygon class="e4706325-b3fa-486e-9567-ff235109a59d" points="551.24 480.2 551.24 473.3 542.96 473.3 542.96 480.2 550.55 480.2 551.24 480.2"/><polygon class="e4706325-b3fa-486e-9567-ff235109a59d" points="550.55 485.72 542.96 485.72 542.96 492.61 551.24 492.61 551.24 485.72 550.55 485.72"/><rect class="e4706325-b3fa-486e-9567-ff235109a59d" x="556.75" y="473.3" width="8.27" height="6.9"/><rect class="e4706325-b3fa-486e-9567-ff235109a59d" x="556.75" y="485.72" width="8.27" height="6.9"/><polygon class="e4706325-b3fa-486e-9567-ff235109a59d" points="234.29 344.36 227.4 338.84 266.01 304.37 363.92 304.37 363.92 334.71 300.49 377.46 234.29 344.36"/><polygon class="c7a2e724-ee6b-4346-873d-79a7937cb906" points="381.78 323.71 381.78 305.06 368.78 305.06 368.78 309.62 363.92 304.37 332.2 338.84 319.79 347.12 300.55 487.72 329.57 516.75 397.02 516.75 397.02 340.22 381.78 323.71"/><rect class="81cdb589-aa97-42c0-af9a-6656d95ca75c" x="227.4" y="338.84" width="104.81" height="177.9"/><rect class="c7a2e724-ee6b-4346-873d-79a7937cb906" x="268.08" y="473.3" width="19.31" height="43.44"/><polygon class="e4706325-b3fa-486e-9567-ff235109a59d" points="247.39 485.72 247.39 478.82 239.12 478.82 239.12 485.72 246.7 485.72 247.39 485.72"/><polygon class="e4706325-b3fa-486e-9567-ff235109a59d" points="246.7 491.23 239.12 491.23 239.12 498.13 247.39 498.13 247.39 491.23 246.7 491.23"/><rect class="e4706325-b3fa-486e-9567-ff235109a59d" x="252.91" y="478.82" width="8.27" height="6.9"/><rect class="e4706325-b3fa-486e-9567-ff235109a59d" x="252.91" y="491.23" width="8.27" height="6.9"/><polygon class="e4706325-b3fa-486e-9567-ff235109a59d" points="303.93 485.72 303.93 478.82 295.66 478.82 295.66 485.72 303.25 485.72 303.93 485.72"/><polygon class="e4706325-b3fa-486e-9567-ff235109a59d" points="303.25 491.23 295.66 491.23 295.66 498.13 303.93 498.13 303.93 491.23 303.25 491.23"/><rect class="e4706325-b3fa-486e-9567-ff235109a59d" x="309.45" y="478.82" width="8.27" height="6.9"/><rect class="e4706325-b3fa-486e-9567-ff235109a59d" x="309.45" y="491.23" width="8.27" height="6.9"/><polygon class="e4706325-b3fa-486e-9567-ff235109a59d" points="361.86 347.81 361.86 340.91 353.58 340.91 353.58 347.81 361.17 347.81 361.86 347.81"/><polygon class="e4706325-b3fa-486e-9567-ff235109a59d" points="361.17 353.32 353.58 353.32 353.58 360.22 361.86 360.22 361.86 353.32 361.17 353.32"/><rect class="e4706325-b3fa-486e-9567-ff235109a59d" x="367.37" y="340.91" width="8.27" height="6.9"/><rect class="e4706325-b3fa-486e-9567-ff235109a59d" x="367.37" y="353.32" width="8.27" height="6.9"/><polygon class="e4706325-b3fa-486e-9567-ff235109a59d" points="361.86 386.42 361.86 379.53 353.58 379.53 353.58 386.42 361.17 386.42 361.86 386.42"/><polygon class="e4706325-b3fa-486e-9567-ff235109a59d" points="361.17 391.94 353.58 391.94 353.58 398.83 361.86 398.83 361.86 391.94 361.17 391.94"/><rect class="e4706325-b3fa-486e-9567-ff235109a59d" x="367.37" y="379.53" width="8.27" height="6.9"/><rect class="e4706325-b3fa-486e-9567-ff235109a59d" x="367.37" y="391.94" width="8.27" height="6.9"/><polygon class="e4706325-b3fa-486e-9567-ff235109a59d" points="361.86 425.04 361.86 418.14 353.58 418.14 353.58 425.04 361.17 425.04 361.86 425.04"/><polygon class="e4706325-b3fa-486e-9567-ff235109a59d" points="361.17 430.55 353.58 430.55 353.58 437.45 361.86 437.45 361.86 430.55 361.17 430.55"/><rect class="e4706325-b3fa-486e-9567-ff235109a59d" x="367.37" y="418.14" width="8.27" height="6.9"/><rect class="e4706325-b3fa-486e-9567-ff235109a59d" x="367.37" y="430.55" width="8.27" height="6.9"/><polygon class="e4706325-b3fa-486e-9567-ff235109a59d" points="361.86 463.65 361.86 456.75 353.58 456.75 353.58 463.65 361.17 463.65 361.86 463.65"/><polygon class="e4706325-b3fa-486e-9567-ff235109a59d" points="361.17 469.17 353.58 469.17 353.58 476.06 361.86 476.06 361.86 469.17 361.17 469.17"/><rect class="e4706325-b3fa-486e-9567-ff235109a59d" x="367.37" y="456.76" width="8.27" height="6.9"/><rect class="e4706325-b3fa-486e-9567-ff235109a59d" x="367.37" y="469.17" width="8.27" height="6.9"/><rect class="e4706325-b3fa-486e-9567-ff235109a59d" x="239.12" y="347.81" width="79.99" height="16.55"/><rect class="e4706325-b3fa-486e-9567-ff235109a59d" x="239.12" y="380.91" width="79.99" height="16.55"/><rect class="e4706325-b3fa-486e-9567-ff235109a59d" x="239.12" y="414" width="79.99" height="16.55"/><rect class="e4706325-b3fa-486e-9567-ff235109a59d" x="239.12" y="447.1" width="79.99" height="16.55"/><polygon class="e4706325-b3fa-486e-9567-ff235109a59d" points="637.29 344.36 630.4 338.84 669.01 304.37 766.92 304.37 766.92 334.71 703.49 377.46 637.29 344.36"/><polygon class="c7a2e724-ee6b-4346-873d-79a7937cb906" points="784.78 323.71 784.78 305.06 771.78 305.06 771.78 309.62 766.92 304.37 735.21 338.84 722.79 347.12 703.55 487.72 732.57 516.75 800.02 516.75 800.02 340.22 784.78 323.71"/><rect class="81cdb589-aa97-42c0-af9a-6656d95ca75c" x="630.4" y="338.84" width="104.81" height="177.9"/><rect class="c7a2e724-ee6b-4346-873d-79a7937cb906" x="671.08" y="473.3" width="19.31" height="43.44"/><polygon class="e4706325-b3fa-486e-9567-ff235109a59d" points="650.39 485.72 650.39 478.82 642.12 478.82 642.12 485.72 649.7 485.72 650.39 485.72"/><polygon class="e4706325-b3fa-486e-9567-ff235109a59d" points="649.7 491.23 642.12 491.23 642.12 498.13 650.39 498.13 650.39 491.23 649.7 491.23"/><rect class="e4706325-b3fa-486e-9567-ff235109a59d" x="655.91" y="478.82" width="8.27" height="6.9"/><rect class="e4706325-b3fa-486e-9567-ff235109a59d" x="655.91" y="491.23" width="8.27" height="6.9"/><polygon class="e4706325-b3fa-486e-9567-ff235109a59d" points="706.93 485.72 706.93 478.82 698.66 478.82 698.66 485.72 706.25 485.72 706.93 485.72"/><polygon class="e4706325-b3fa-486e-9567-ff235109a59d" points="706.25 491.23 698.66 491.23 698.66 498.13 706.93 498.13 706.93 491.23 706.25 491.23"/><rect class="e4706325-b3fa-486e-9567-ff235109a59d" x="712.45" y="478.82" width="8.27" height="6.9"/><rect class="e4706325-b3fa-486e-9567-ff235109a59d" x="712.45" y="491.23" width="8.27" height="6.9"/><polygon class="e4706325-b3fa-486e-9567-ff235109a59d" points="764.86 347.81 764.86 340.91 756.58 340.91 756.58 347.81 764.17 347.81 764.86 347.81"/><polygon class="e4706325-b3fa-486e-9567-ff235109a59d" points="764.17 353.32 756.58 353.32 756.58 360.22 764.86 360.22 764.86 353.32 764.17 353.32"/><rect class="e4706325-b3fa-486e-9567-ff235109a59d" x="770.37" y="340.91" width="8.27" height="6.9"/><rect class="e4706325-b3fa-486e-9567-ff235109a59d" x="770.37" y="353.32" width="8.27" height="6.9"/><polygon class="e4706325-b3fa-486e-9567-ff235109a59d" points="764.86 386.42 764.86 379.53 756.58 379.53 756.58 386.42 764.17 386.42 764.86 386.42"/><polygon class="e4706325-b3fa-486e-9567-ff235109a59d" points="764.17 391.94 756.58 391.94 756.58 398.83 764.86 398.83 764.86 391.94 764.17 391.94"/><rect class="e4706325-b3fa-486e-9567-ff235109a59d" x="770.37" y="379.53" width="8.27" height="6.9"/><rect class="e4706325-b3fa-486e-9567-ff235109a59d" x="770.37" y="391.94" width="8.27" height="6.9"/><polygon class="e4706325-b3fa-486e-9567-ff235109a59d" points="764.86 425.04 764.86 418.14 756.58 418.14 756.58 425.04 764.17 425.04 764.86 425.04"/><polygon class="e4706325-b3fa-486e-9567-ff235109a59d" points="764.17 430.55 756.58 430.55 756.58 437.45 764.86 437.45 764.86 430.55 764.17 430.55"/><rect class="e4706325-b3fa-486e-9567-ff235109a59d" x="770.37" y="418.14" width="8.27" height="6.9"/><rect class="e4706325-b3fa-486e-9567-ff235109a59d" x="770.37" y="430.55" width="8.27" height="6.9"/><polygon class="e4706325-b3fa-486e-9567-ff235109a59d" points="764.86 463.65 764.86 456.75 756.58 456.75 756.58 463.65 764.17 463.65 764.86 463.65"/><polygon class="e4706325-b3fa-486e-9567-ff235109a59d" points="764.17 469.17 756.58 469.17 756.58 476.06 764.86 476.06 764.86 469.17 764.17 469.17"/><rect class="e4706325-b3fa-486e-9567-ff235109a59d" x="770.37" y="456.76" width="8.27" height="6.9"/><rect class="e4706325-b3fa-486e-9567-ff235109a59d" x="770.37" y="469.17" width="8.27" height="6.9"/><rect class="e4706325-b3fa-486e-9567-ff235109a59d" x="642.12" y="347.81" width="79.99" height="16.55"/><rect class="e4706325-b3fa-486e-9567-ff235109a59d" x="642.12" y="380.91" width="79.99" height="16.55"/><rect class="e4706325-b3fa-486e-9567-ff235109a59d" x="642.12" y="414" width="79.99" height="16.55"/><rect class="e4706325-b3fa-486e-9567-ff235109a59d" x="642.12" y="447.1" width="79.99" height="16.55"/><polygon class="e4706325-b3fa-486e-9567-ff235109a59d" points="858.29 344.36 851.4 338.84 890.01 304.37 987.92 304.37 987.92 334.71 924.49 377.46 858.29 344.36"/><polygon class="c7a2e724-ee6b-4346-873d-79a7937cb906" points="1005.78 323.71 1005.78 305.06 992.78 305.06 992.78 309.62 987.92 304.37 956.21 338.84 943.79 347.12 924.55 487.72 953.57 516.75 1021.02 516.75 1021.02 340.22 1005.78 323.71"/><rect class="81cdb589-aa97-42c0-af9a-6656d95ca75c" x="851.4" y="338.84" width="104.81" height="177.9"/><rect class="c7a2e724-ee6b-4346-873d-79a7937cb906" x="892.08" y="473.3" width="19.31" height="43.44"/><polygon class="e4706325-b3fa-486e-9567-ff235109a59d" points="871.39 485.72 871.39 478.82 863.12 478.82 863.12 485.72 870.7 485.72 871.39 485.72"/><polygon class="e4706325-b3fa-486e-9567-ff235109a59d" points="870.7 491.23 863.12 491.23 863.12 498.13 871.39 498.13 871.39 491.23 870.7 491.23"/><rect class="e4706325-b3fa-486e-9567-ff235109a59d" x="876.91" y="478.82" width="8.27" height="6.9"/><rect class="e4706325-b3fa-486e-9567-ff235109a59d" x="876.91" y="491.23" width="8.27" height="6.9"/><polygon class="e4706325-b3fa-486e-9567-ff235109a59d" points="927.93 485.72 927.93 478.82 919.66 478.82 919.66 485.72 927.25 485.72 927.93 485.72"/><polygon class="e4706325-b3fa-486e-9567-ff235109a59d" points="927.25 491.23 919.66 491.23 919.66 498.13 927.93 498.13 927.93 491.23 927.25 491.23"/><rect class="e4706325-b3fa-486e-9567-ff235109a59d" x="933.45" y="478.82" width="8.27" height="6.9"/><rect class="e4706325-b3fa-486e-9567-ff235109a59d" x="933.45" y="491.23" width="8.27" height="6.9"/><polygon class="e4706325-b3fa-486e-9567-ff235109a59d" points="985.86 347.81 985.86 340.91 977.58 340.91 977.58 347.81 985.17 347.81 985.86 347.81"/><polygon class="e4706325-b3fa-486e-9567-ff235109a59d" points="985.17 353.32 977.58 353.32 977.58 360.22 985.86 360.22 985.86 353.32 985.17 353.32"/><rect class="e4706325-b3fa-486e-9567-ff235109a59d" x="991.37" y="340.91" width="8.27" height="6.9"/><rect class="e4706325-b3fa-486e-9567-ff235109a59d" x="991.37" y="353.32" width="8.27" height="6.9"/><polygon class="e4706325-b3fa-486e-9567-ff235109a59d" points="985.86 386.42 985.86 379.53 977.58 379.53 977.58 386.42 985.17 386.42 985.86 386.42"/><polygon class="e4706325-b3fa-486e-9567-ff235109a59d" points="985.17 391.94 977.58 391.94 977.58 398.83 985.86 398.83 985.86 391.94 985.17 391.94"/><rect class="e4706325-b3fa-486e-9567-ff235109a59d" x="991.37" y="379.53" width="8.27" height="6.9"/><rect class="e4706325-b3fa-486e-9567-ff235109a59d" x="991.37" y="391.94" width="8.27" height="6.9"/><polygon class="e4706325-b3fa-486e-9567-ff235109a59d" points="985.86 425.04 985.86 418.14 977.58 418.14 977.58 425.04 985.17 425.04 985.86 425.04"/><polygon class="e4706325-b3fa-486e-9567-ff235109a59d" points="985.17 430.55 977.58 430.55 977.58 437.45 985.86 437.45 985.86 430.55 985.17 430.55"/><rect class="e4706325-b3fa-486e-9567-ff235109a59d" x="991.37" y="418.14" width="8.27" height="6.9"/><rect class="e4706325-b3fa-486e-9567-ff235109a59d" x="991.37" y="430.55" width="8.27" height="6.9"/><polygon class="e4706325-b3fa-486e-9567-ff235109a59d" points="985.86 463.65 985.86 456.75 977.58 456.75 977.58 463.65 985.17 463.65 985.86 463.65"/><polygon class="e4706325-b3fa-486e-9567-ff235109a59d" points="985.17 469.17 977.58 469.17 977.58 476.06 985.86 476.06 985.86 469.17 985.17 469.17"/><rect class="e4706325-b3fa-486e-9567-ff235109a59d" x="991.37" y="456.76" width="8.27" height="6.9"/><rect class="e4706325-b3fa-486e-9567-ff235109a59d" x="991.37" y="469.17" width="8.27" height="6.9"/><rect class="e4706325-b3fa-486e-9567-ff235109a59d" x="863.12" y="347.81" width="79.99" height="16.55"/><rect class="e4706325-b3fa-486e-9567-ff235109a59d" x="863.12" y="380.91" width="79.99" height="16.55"/><rect class="e4706325-b3fa-486e-9567-ff235109a59d" x="863.12" y="414" width="79.99" height="16.55"/><rect class="e4706325-b3fa-486e-9567-ff235109a59d" x="863.12" y="447.1" width="79.99" height="16.55"/><rect class="e4706325-b3fa-486e-9567-ff235109a59d" x="-46.22" y="516.06" width="1137" height="2"/><rect class="e4706325-b3fa-486e-9567-ff235109a59d" x="205.78" y="437.06" width="2" height="79"/><path class="706c8f96-c35f-46e5-836c-10f774486a37" d="M226.23,447.12c.13,27.62-19.31,50.11-19.31,50.11s-19.64-22.3-19.77-49.93,19.31-50.11,19.31-50.11S226.11,419.5,226.23,447.12Z"/><rect class="e4706325-b3fa-486e-9567-ff235109a59d" x="405.78" y="437.06" width="2" height="79"/><path class="706c8f96-c35f-46e5-836c-10f774486a37" d="M426.23,447.12c.13,27.62-19.31,50.11-19.31,50.11s-19.64-22.3-19.77-49.93,19.31-50.11,19.31-50.11S426.11,419.5,426.23,447.12Z"/><rect class="e4706325-b3fa-486e-9567-ff235109a59d" x="804.78" y="437.06" width="2" height="79"/><path class="706c8f96-c35f-46e5-836c-10f774486a37" d="M825.23,447.12c.13,27.62-19.31,50.11-19.31,50.11s-19.64-22.3-19.77-49.93,19.31-50.11,19.31-50.11S825.11,419.5,825.23,447.12Z"/><ellipse class="706c8f96-c35f-46e5-836c-10f774486a37" cx="541.28" cy="163.5" rx="38" ry="8.55"/><path class="706c8f96-c35f-46e5-836c-10f774486a37" d="M584.28,44c0,24.3-44,93-44,93s-44-68.7-44-93a44,44,0,0,1,88,0Z"/><circle class="81cdb589-aa97-42c0-af9a-6656d95ca75c" cx="540.28" cy="44" r="25"/></svg>