<?xml version="1.0" encoding="utf-8"?>
<!-- Generator: Adobe Illustrator 21.0.0, SVG Export Plug-In . SVG Version: 6.00 Build 0)  -->
<svg version="1.1" id="Layer_1" xmlns="http://www.w3.org/2000/svg" xmlns:xlink="http://www.w3.org/1999/xlink" x="0px" y="0px"
	 viewBox="0 0 18 18" style="enable-background:new 0 0 18 18;" xml:space="preserve">
<style type="text/css">
	.st0{fill-opacity:0;}
</style>
<g>
	<g>
		<rect x="-3" class="st0" width="24" height="24"/>
		<path d="M1,8H17c0.5,0,1,0.4,1,0.9v0.1c0,0.5-0.4,0.9-1,0.9H1c-0.5,0-1-0.4-1-0.9V8.9C0,8.4,0.4,8,1,8z"/>
		<path d="M1,16H17c0.5,0,1,0.4,1,1V17c0,0.5-0.4,1-1,1H1c-0.5,0-1-0.4-1-1V17C0,16.4,0.4,16,1,16z"/>
		<path d="M1,0H17c0.5,0,1,0.4,1,0.9v0.1C18,1.6,17.6,2,17,2H1C0.4,2,0,1.6,0,1.1V0.9C0,0.4,0.4,0,1,0z"/>
	</g>
</g>
</svg>
