<svg id="864171c1-ce9b-4226-b801-4d1cad6a580e" data-name="Layer 1" xmlns="http://www.w3.org/2000/svg" viewBox="0 0 503.41 119.92"><defs><style>.\36 05dbe21-8a96-40ed-a724-fb21c363b3c1{fill:#38d39f;}.\33 b4823f0-ea68-4aef-b94a-c9ce6b5dd5a3{font-size:90px;font-family:SpaceGrotesk-Bold, Space Grotesk;font-weight:700;}.\32 4cad9df-871c-43e6-ac06-c50483c296da{letter-spacing:-0.02em;}</style></defs><title>nexthome-logo</title><g id="4be18479-63e3-4d35-bc6b-9a67c29f64a2" data-name="document"><path class="605dbe21-8a96-40ed-a724-fb21c363b3c1" d="M14.69,13.95C14.62-3,14.38.34,14.7.17H-.41V23.23H0a1.29,1.29,0,0,0-.38.88V52.2h0a1.12,1.12,0,0,0,0,.32V88.23H14.7V75.49h0V61.06a1.44,1.44,0,0,1,.71-.89L36.71,46.95a1.42,1.42,0,0,1,1.7,0L59.57,60.17a1.47,1.47,0,0,1,.66,1.23V88.23H75.34V75.49h0V24.11a1.43,1.43,0,0,0-.76-1.23L38.36.21a1.78,1.78,0,0,0-1.7,0l-22,13.73Zm.06,28.34V33a1.43,1.43,0,0,1,.76-1.23L36.76,18.54a1.42,1.42,0,0,1,1.7,0L59.61,31.76A1.47,1.47,0,0,1,60.28,33v9.36l-22-13.72a1.78,1.78,0,0,0-1.7,0L14.75,42.29ZM45.12,65.17H30V88.23H45.12C45.12,60.83,44.74,65.36,45.12,65.17Z" transform="translate(0.41 0)"/></g><text class="3b4823f0-ea68-4aef-b94a-c9ce6b5dd5a3" transform="translate(78.08 88.33)">n<tspan class="24cad9df-871c-43e6-ac06-c50483c296da" x="53.46" y="0">e</tspan><tspan x="100.08" y="0">xthome</tspan></text></svg>