<svg xmlns="http://www.w3.org/2000/svg" viewBox="0 0 271.9 598.56"><defs><style>.ffa9ff6b-decf-464d-8190-2be40f64b569{fill:#2f2e41;}.\31 3397103-70a8-4417-a4e1-1c51fe2a9163{fill:#ffb9b9;}.b2bc86e8-a712-471e-b2cf-a45fc63f9e7e{opacity:0.1;isolation:isolate;}.\38 c06ad4f-85ca-4baa-9380-b2556e04de22{fill:#575a89;}.a31404df-b4e6-4189-a235-1b4be2cd69ca{fill:#3f3d56;}.bba3b91f-074e-4691-b505-8145f9e0336d{fill:#f2f2f2;}.\37 3519805-c35a-4b80-a8eb-3f8fc60463b3{fill:none;stroke:#2f2e41;stroke-miterlimit:10;stroke-width:3px;}</style></defs><title>tenant-icon</title><g id="f3035961-b379-48c4-b9c7-4a6b6d73f761" data-name="Layer 2"><g id="4c5ff75b-86a7-4e52-918c-9defa03236ba" data-name="b68b2dea-431f-4b15-9350-961d32a371b9"><circle class="ffa9ff6b-decf-464d-8190-2be40f64b569" cx="153.99" cy="37.17" r="31"/><path class="ffa9ff6b-decf-464d-8190-2be40f64b569" d="M59.58,410.35l19-66,6.48,2s-7.7,49.43-19.85,62Z"/><path class="13397103-70a8-4417-a4e1-1c51fe2a9163" d="M132.11,55.81s2.43,25.93-3.24,33.23,3.65,21.47,3.65,21.47l17,20.26,25.12-11.35,3.65-21.07-2.43-14.59s-8.51-8.51-4.86-23.91S132.11,55.81,132.11,55.81Z"/><path class="b2bc86e8-a712-471e-b2cf-a45fc63f9e7e" d="M132.11,55.81s2.43,25.93-3.24,33.23,3.65,21.47,3.65,21.47l17,20.26,25.12-11.35,3.65-21.07-2.43-14.59s-8.51-8.51-4.86-23.91S132.11,55.81,132.11,55.81Z"/><polygon class="13397103-70a8-4417-a4e1-1c51fe2a9163" points="146.69 540.82 146.69 557.43 168.98 561.88 166.95 534.33 146.69 540.82"/><polygon class="13397103-70a8-4417-a4e1-1c51fe2a9163" points="213.55 534.33 208.69 557.43 218.41 564.32 235.43 551.76 233.4 531.9 213.55 534.33"/><path class="ffa9ff6b-decf-464d-8190-2be40f64b569" d="M171,559.86s-8.51-14.38-24.31-5.37c0,0-2.84,15.9-5.67,17.12s-18.64,24.31,0,26.34,28-4.05,28-4.05-3.65,3.14,2,1.52,3.24-10.53,3.24-10.53Z"/><path class="ffa9ff6b-decf-464d-8190-2be40f64b569" d="M226.51,550.14S214,559,211.93,555s-5.27-3.65-5.27-3.65-11.35,42.77-4.05,44.79a24.58,24.58,0,0,0,14.18-.73s9.72-6.81,9.72-1.54,27.15,4.89,38.49,4.48,5.27-8.91,5.27-8.91l-15-14.59-17-24.72S230.57,543.25,226.51,550.14Z"/><path class="ffa9ff6b-decf-464d-8190-2be40f64b569" d="M107,279.07l17,163.29s9.32,99.68,10.94,101.3,12.16,6.89,35.25,0l-5.27-130.47,9.72-81,22.29,55.92s5.27,150.32,8.91,150.32,25.93,7.29,31.2-1.62,4.46-104.94,4.46-104.94-2.43-151.54-20.26-156.4S107,279.07,107,279.07Z"/><circle class="13397103-70a8-4417-a4e1-1c51fe2a9163" cx="153.99" cy="42.84" r="27.96"/><path class="8c06ad4f-85ca-4baa-9380-b2556e04de22" d="M155.61,120.64s-2.84-17.42-2.84-20.66-12.56-5.27-12.56-5.27-9.72-10.94-11.75-9.32-32.82,22.29-37.68,25.12-10.13,15-9.72,15.8,25.53,53.48,25.53,53.48,10.94,32.41,3.24,49.43-17.42,50.65-3.24,57.54,83.06,21.88,95.62,8.91,21.47-16.61,24.72-16.61-13.37-56.32-9.72-61.59-1.62-38.09-1.62-38.09l18.64-52.27s-1.62-29.17-38.49-35.66l-22.06-10.7Z"/><path class="13397103-70a8-4417-a4e1-1c51fe2a9163" d="M79.84,286.36s-2,19.45-2,25.12-9.72,38.9,4.46,42.95,13-44.17,13-44.17V285.55Z"/><path class="13397103-70a8-4417-a4e1-1c51fe2a9163" d="M248,268.13s2.43,18.64,1.22,22.69,11.75,39.3-5.67,41.33-13-42.14-13-42.14V268.13Z"/><path class="ffa9ff6b-decf-464d-8190-2be40f64b569" d="M76.19,403.86l11.75-62.4h3.65A24.54,24.54,0,0,1,95.23,365c-4.86,13.78-8.91,38.9-8.91,38.9Z"/><path class="8c06ad4f-85ca-4baa-9380-b2556e04de22" d="M87.13,121.45l-6.08,4.86S72.95,255.16,75,264.88s-7.29,23.5.81,24.72,17.83,6.48,22.29,3.24,5.27-15,6.89-17.83,4.46-36.47,4.46-36.47,8.51-33.63,3.24-58.75-10.13-50.65-10.13-50.65Z"/><path class="8c06ad4f-85ca-4baa-9380-b2556e04de22" d="M215.57,111.32l18.64,15.8,14.18,82.66s8.91,64.42,2,65.23-17.42-1.22-21.88,0-8.1-2-8.1-2-4.86-25.93-4.86-26.34-3.24-30-3.24-30l-4.05-33.23L214.36,147Z"/><path class="a31404df-b4e6-4189-a235-1b4be2cd69ca" d="M127.65,493.81s-2.63,7.56-6.26,17.86c-1.69,4.79-3.59,10.17-5.54,15.66-1.26,3.55-2.54,7.14-3.8,10.65-2,5.61-4,11-5.67,15.63-2.25,6.11-4.08,10.89-5.06,13.12-4.46,10.13-85.9-6.08-92.38-10.13S.83,538.79,0,519.34c0-.1,0-.2,0-.3-.11-3.93.9-9.77,2.57-16.63.83-3.43,1.84-7.11,3-10.93,1.5-5.13,3.2-10.5,5-15.85,7.64-23,16.65-45.43,16.65-45.43S43,419.26,48.64,412s36.87-13,36.87-13c8.91.41,29.17,34.85,37.28,45.38S127.65,493.81,127.65,493.81Z"/><circle class="ffa9ff6b-decf-464d-8190-2be40f64b569" cx="82.27" cy="428.58" r="3.65"/><circle class="ffa9ff6b-decf-464d-8190-2be40f64b569" cx="87.94" cy="432.63" r="2.03"/><path class="bba3b91f-074e-4691-b505-8145f9e0336d" d="M121.39,511.68c-1.69,4.79-3.59,10.17-5.54,15.66L5.53,491.48c1.5-5.13,3.2-10.5,5-15.85Z"/><path class="bba3b91f-074e-4691-b505-8145f9e0336d" d="M112,538c-2,5.61-4,11-5.67,15.63L0,519c-.11-3.93.9-9.77,2.57-16.63Z"/><path class="73519805-c35a-4b80-a8eb-3f8fc60463b3" d="M82.27,429.39s8.1,35.66,3.24,67.26,12.16,61.18,12.16,61.18"/><path class="73519805-c35a-4b80-a8eb-3f8fc60463b3" d="M87.94,432.23s-15.8,57.54-16.21,65.64-6.89,66-15,72.12"/><path class="ffa9ff6b-decf-464d-8190-2be40f64b569" d="M132.52,25.78s-6.33-16.45,2.85-21.83l2.53,7.28S161-2.7,167,.47l-5.7,7.59s26.9,0,28.79,10.44l-9.49.32s10.13,6.64,10.44,17.4l-20.25,1.27,9.81,5.7s-36.7,5.06-45.56-9.49Z"/><path class="ffa9ff6b-decf-464d-8190-2be40f64b569" d="M127,26.43s7.29,14.59,17,10.94,0-17,0-17l-6.48-3.24Z"/></g></g></svg>