<?xml version="1.0" encoding="utf-8"?>
<!-- Generator: Adobe Illustrator 21.0.0, SVG Export Plug-In . SVG Version: 6.00 Build 0)  -->
<svg version="1.1" id="fae1fba2-dc5f-40cc-aa87-a0380f077e5d"
	 xmlns="http://www.w3.org/2000/svg" xmlns:xlink="http://www.w3.org/1999/xlink" x="0px" y="0px" viewBox="0 0 50 50"
	 style="enable-background:new 0 0 50 50;" xml:space="preserve">
<style type="text/css">
	.st0{clip-path:url(#SVGID_2_);fill:#F9B7B8;}
	.st1{clip-path:url(#SVGID_4_);fill:#F9B7B8;}
	.st2{clip-path:url(#SVGID_6_);}
	.st3{clip-path:url(#SVGID_8_);fill:#38D39F;}
	.st4{clip-path:url(#SVGID_10_);fill:#38D39F;}
	.st5{clip-path:url(#SVGID_12_);fill:#38D39F;}
	.st6{clip-path:url(#SVGID_14_);fill:#302E41;}
	.st7{clip-path:url(#SVGID_16_);fill:#F9B7B8;}
</style>
<title>tenant-face</title>
<g>
	<g>
		<defs>
			<rect id="SVGID_1_" width="50" height="50"/>
		</defs>
		<clipPath id="SVGID_2_">
			<use xlink:href="#SVGID_1_"  style="overflow:visible;"/>
		</clipPath>
		<circle class="st0" cx="17.1" cy="17.4" r="10.7"/>
	</g>
	<g>
		<defs>
			<rect id="SVGID_3_" width="50" height="50"/>
		</defs>
		<clipPath id="SVGID_4_">
			<use xlink:href="#SVGID_3_"  style="overflow:visible;"/>
		</clipPath>
		<path class="st1" d="M25,20.2L29.8,31L16.9,49.4c0,0-0.9-20.2-3.5-23.6S25,20.2,25,20.2z"/>
	</g>
	<g>
		<defs>
			<rect id="SVGID_5_" width="50" height="50"/>
		</defs>
		<clipPath id="SVGID_6_">
			<use xlink:href="#SVGID_5_"  style="overflow:visible;"/>
		</clipPath>
		<polygon class="st2" points="19,42.6 21.2,37 22.9,37.4 25,35.7 28.1,26.2 32.4,29.2 37.9,85.5 3.1,86.4 7.9,47.3 12.2,36.1 
			15.3,32 17.3,38.3 		"/>
	</g>
	<g>
		<defs>
			<rect id="SVGID_7_" width="50" height="50"/>
		</defs>
		<clipPath id="SVGID_8_">
			<use xlink:href="#SVGID_7_"  style="overflow:visible;"/>
		</clipPath>
		<path class="st3" d="M28.9,66.6l1.3-38.9c0,0,2.5,0.2,3.4,1.5s15,3.9,15,3.9l-2.6,40c0,0,10.7,31.8,6.9,33.5s-10.7,1.3-10.7,1.3
			L28.9,66.6z"/>
	</g>
	<g>
		<defs>
			<rect id="SVGID_9_" width="50" height="50"/>
		</defs>
		<clipPath id="SVGID_10_">
			<use xlink:href="#SVGID_9_"  style="overflow:visible;"/>
		</clipPath>
		<path class="st4" d="M8.1,61.7l4.6-26.2L2.5,42.4l2.6,18.9L2.9,74.1c0,0-8.2,35.7-5.6,36.9c1.8,0.7,3.8,0.7,5.6,0l5.2-36V61.7z"/>
	</g>
	<g>
		<defs>
			<rect id="SVGID_11_" width="50" height="50"/>
		</defs>
		<clipPath id="SVGID_12_">
			<use xlink:href="#SVGID_11_"  style="overflow:visible;"/>
		</clipPath>
		<path class="st5" d="M45.4,34.6l3.4-1.7c0,0,2.6,3.4,3,6.4s2.6,6.9,2.6,9s6,22.3,6,22.3l-13.7,28c0,0-3-10.3-9.5-11.2l10.7-15
			l-6-10.7L45.4,34.6z"/>
	</g>
	<g>
		<defs>
			<rect id="SVGID_13_" width="50" height="50"/>
		</defs>
		<clipPath id="SVGID_14_">
			<use xlink:href="#SVGID_13_"  style="overflow:visible;"/>
		</clipPath>
		<path class="st6" d="M26.1,7.2l2-0.8c0,0-4.2-4.7-10.1-4.3l1.7-1.8c0,0-4-1.6-7.7,2.6c-2.2,2.3-4.1,5-5.6,7.8H4.2l0.9,2l-3.2,2
			l3.3-0.4C5,15.4,5,16.5,5.1,17.6s0.7,2.1,1.6,2.8l0,0c0,0,2.5-5.2,2.5-6v2c0,0,2-1.8,2-3l1.1,1.4l0.6-2.2l6.8,2.2L18.6,13l4.2,0.6
			l-1.7-2.2c0,0,4.8,2.6,5,4.9c0.2,1.5,0.8,3,1.6,4.3C27.7,20.7,31.4,10.2,26.1,7.2z"/>
	</g>
	<g>
		<defs>
			<rect id="SVGID_15_" width="50" height="50"/>
		</defs>
		<clipPath id="SVGID_16_">
			<use xlink:href="#SVGID_15_"  style="overflow:visible;"/>
		</clipPath>
		<ellipse class="st7" cx="25.9" cy="15.7" rx="1.2" ry="1.5"/>
	</g>
</g>
</svg>
